<?xml version="1.0" encoding="UTF-8"?><svg id="Layer_2" xmlns="http://www.w3.org/2000/svg" viewBox="0 0 2451 1635.01"><defs><style>.cls-1{fill:#706f6f;}</style></defs><g id="_ëîé_1"><g><path class="cls-1" d="m1674.72,518.83v597.35h-898.45v-597.35h898.45m2.42-2.42h-903.29v602.19h903.29v-602.19h0Z"/><rect class="cls-1" x="773.86" y="1042.11" width="903.29" height="2.42"/><rect class="cls-1" x="773.86" y="966.84" width="903.29" height="2.42"/><rect class="cls-1" x="773.86" y="891.57" width="903.29" height="2.42"/><rect class="cls-1" x="773.86" y="816.29" width="903.29" height="2.42"/><rect class="cls-1" x="773.86" y="741.02" width="903.29" height="2.42"/><rect class="cls-1" x="773.86" y="665.75" width="903.29" height="2.42"/><rect class="cls-1" x="773.86" y="590.47" width="903.29" height="2.42"/><rect class="cls-1" x="1563.02" y="516.41" width="2.42" height="602.19"/><rect class="cls-1" x="1450.11" y="516.41" width="2.42" height="602.19"/><rect class="cls-1" x="1337.2" y="516.41" width="2.42" height="602.19"/><rect class="cls-1" x="1224.29" y="516.41" width="2.42" height="602.19"/><rect class="cls-1" x="1111.38" y="516.41" width="2.42" height="602.19"/><rect class="cls-1" x="998.47" y="516.41" width="2.42" height="602.19"/><rect class="cls-1" x="885.56" y="516.41" width="2.42" height="602.19"/></g><g><path class="cls-1" d="m2443.1,3.08l-766.64,511.09h-901.93L7.9,3.08h2435.21m7.4-2.24H.5l773.36,515.57h903.29L2450.5.84h0Z"/><rect class="cls-1" x="735.16" y="489.49" width="980.68" height="2.24"/><rect class="cls-1" x="689.22" y="458.86" width="1072.57" height="2.24"/><rect class="cls-1" x="633.77" y="421.9" width="1183.46" height="2.24"/><rect class="cls-1" x="565.54" y="376.41" width="1319.93" height="2.24"/><rect class="cls-1" x="479.51" y="319.06" width="1491.98" height="2.24"/><rect class="cls-1" x="367.7" y="244.52" width="1715.59" height="2.24"/><rect class="cls-1" x="216.47" y="143.7" width="2018.06" height="2.24"/><rect class="cls-1" x="1466.22" y="257.5" width="776.04" height="2.24" transform="translate(296.31 1296.86) rotate(-41.62)"/><rect class="cls-1" x="1322.43" y="257.5" width="644.46" height="2.24" transform="translate(451.56 1419.79) rotate(-53.16)"/><rect class="cls-1" x="1159.77" y="257.5" width="550.63" height="2.24" transform="translate(688.73 1511.34) rotate(-69.43)"/><rect class="cls-1" x="1224.38" y=".84" width="2.24" height="515.57"/><rect class="cls-1" x="1014.8" y="-16.69" width="2.24" height="550.63" transform="translate(-26.12 373.18) rotate(-20.56)"/><rect class="cls-1" x="805.22" y="-63.61" width="2.24" height="644.46" transform="translate(6.09 535.53) rotate(-36.87)"/><rect class="cls-1" x="595.64" y="-129.4" width="2.24" height="776.04" transform="translate(7 532.83) rotate(-48.37)"/></g><g><path class="cls-1" d="m1676.47,1120.84l766.64,511.09H7.9l766.64-511.09h901.93m.68-2.24h-903.29L.5,1634.17h2450l-773.36-515.57h0Z"/><rect class="cls-1" x="735.16" y="1143.28" width="980.68" height="2.24"/><rect class="cls-1" x="689.22" y="1173.91" width="1072.57" height="2.24"/><rect class="cls-1" x="633.77" y="1210.87" width="1183.46" height="2.24"/><rect class="cls-1" x="565.54" y="1256.36" width="1319.93" height="2.24"/><rect class="cls-1" x="479.51" y="1313.71" width="1491.98" height="2.24"/><rect class="cls-1" x="367.7" y="1388.25" width="1715.59" height="2.24"/><rect class="cls-1" x="216.47" y="1489.07" width="2018.06" height="2.24"/><rect class="cls-1" x="1853.12" y="988.37" width="2.24" height="776.04" transform="translate(-406.37 1847.84) rotate(-48.37)"/><rect class="cls-1" x="1643.54" y="1054.15" width="2.24" height="644.46" transform="translate(-496.9 1262.08) rotate(-36.87)"/><rect class="cls-1" x="1433.96" y="1101.07" width="2.24" height="550.63" transform="translate(-391.91 591.53) rotate(-20.56)"/><rect class="cls-1" x="1224.38" y="1118.6" width="2.24" height="515.57"/><rect class="cls-1" x="740.61" y="1375.26" width="550.63" height="2.24" transform="translate(-629.18 1845.62) rotate(-69.49)"/><rect class="cls-1" x="484.11" y="1375.27" width="644.46" height="2.24" transform="translate(-778.6 1195.87) rotate(-53.14)"/><rect class="cls-1" x="208.74" y="1375.26" width="776.04" height="2.24" transform="translate(-763.6 743.94) rotate(-41.63)"/></g><g><g><path class="cls-1" d="m2448.26,5.02v1624.97s-768.88-512.59-768.88-512.59v-599.79S2448.26,5.02,2448.26,5.02m2.24-4.18l-773.36,515.57v602.19s773.36,515.57,773.36,515.57V.84h0Z"/><rect class="cls-1" x="1714.72" y="490.61" width="2.24" height="653.78"/><rect class="cls-1" x="1760.66" y="459.98" width="2.24" height="715.05"/><rect class="cls-1" x="1816.11" y="423.02" width="2.24" height="788.98"/><rect class="cls-1" x="1884.35" y="377.53" width="2.24" height="879.95"/><rect class="cls-1" x="1970.37" y="320.18" width="2.24" height="994.65"/><rect class="cls-1" x="2082.18" y="245.64" width="2.24" height="1143.73"/><rect class="cls-1" x="2233.41" y="144.82" width="2.24" height="1345.37"/><rect class="cls-1" x="1631.5" y="397.22" width="864.64" height="2.24" transform="translate(39.72 964.94) rotate(-26.56)"/><rect class="cls-1" x="1656.23" y="536.94" width="815.19" height="2.24" transform="translate(-64.24 680.22) rotate(-18.43)"/><rect class="cls-1" x="1671.81" y="676.66" width="784.02" height="2.24" transform="translate(-83.15 347.2) rotate(-9.43)"/><rect class="cls-1" x="1677.14" y="816.38" width="773.36" height="2.24"/><rect class="cls-1" x="2062.7" y="565.21" width="2.24" height="784.02" transform="translate(780.33 2835.6) rotate(-80.54)"/><rect class="cls-1" x="2062.7" y="689.35" width="2.24" height="815.19" transform="translate(370.53 2707.97) rotate(-71.57)"/><rect class="cls-1" x="2062.7" y="804.35" width="2.24" height="864.64" transform="translate(34.75 2529.55) rotate(-63.43)"/></g><g><path class="cls-1" d="m2448.26,5.02v1624.97s-768.88-512.59-768.88-512.59v-599.79S2448.26,5.02,2448.26,5.02m2.24-4.18l-773.36,515.57v602.19s773.36,515.57,773.36,515.57V.84h0Z"/><rect class="cls-1" x="1714.72" y="490.61" width="2.24" height="653.78"/><rect class="cls-1" x="1760.66" y="459.98" width="2.24" height="715.05"/><rect class="cls-1" x="1816.11" y="423.02" width="2.24" height="788.98"/><rect class="cls-1" x="1884.35" y="377.53" width="2.24" height="879.95"/><rect class="cls-1" x="1970.37" y="320.18" width="2.24" height="994.65"/><rect class="cls-1" x="2082.18" y="245.64" width="2.24" height="1143.73"/><rect class="cls-1" x="2233.41" y="144.82" width="2.24" height="1345.37"/><rect class="cls-1" x="1631.5" y="397.22" width="864.64" height="2.24" transform="translate(39.72 964.94) rotate(-26.56)"/><rect class="cls-1" x="1656.23" y="536.94" width="815.19" height="2.24" transform="translate(-64.24 680.22) rotate(-18.43)"/><rect class="cls-1" x="1671.81" y="676.66" width="784.02" height="2.24" transform="translate(-83.15 347.2) rotate(-9.43)"/><rect class="cls-1" x="1677.14" y="816.38" width="773.36" height="2.24"/><rect class="cls-1" x="2062.7" y="565.21" width="2.24" height="784.02" transform="translate(780.33 2835.6) rotate(-80.54)"/><rect class="cls-1" x="2062.7" y="689.35" width="2.24" height="815.19" transform="translate(370.53 2707.97) rotate(-71.57)"/><rect class="cls-1" x="2062.7" y="804.35" width="2.24" height="864.64" transform="translate(34.75 2529.55) rotate(-63.43)"/></g></g><g><g><path class="cls-1" d="m2.74,5.02l768.88,512.59v599.79L2.74,1629.99V5.02M.5.84v1633.33s773.36-515.57,773.36-515.57v-602.19L.5.84h0Z"/><rect class="cls-1" x="734.04" y="490.61" width="2.24" height="653.78"/><rect class="cls-1" x="688.1" y="459.98" width="2.24" height="715.05"/><rect class="cls-1" x="632.65" y="423.02" width="2.24" height="788.98"/><rect class="cls-1" x="564.42" y="377.53" width="2.24" height="879.95"/><rect class="cls-1" x="478.39" y="320.18" width="2.24" height="994.65"/><rect class="cls-1" x="366.59" y="245.64" width="2.24" height="1143.73"/><rect class="cls-1" x="215.35" y="144.82" width="2.24" height="1345.37"/><rect class="cls-1" x="386.06" y="-33.98" width="2.24" height="864.64" transform="translate(-142.26 566.5) rotate(-63.43)"/><rect class="cls-1" x="386.06" y="130.47" width="2.24" height="815.19" transform="translate(-245.71 735.22) rotate(-71.57)"/><rect class="cls-1" x="386.06" y="285.77" width="2.24" height="784.02" transform="translate(-345.03 948.27) rotate(-80.54)"/><rect class="cls-1" x=".5" y="816.38" width="773.36" height="2.24"/><rect class="cls-1" x="-4.83" y="956.1" width="784.02" height="2.24" transform="translate(-152.3 76.8) rotate(-9.48)"/><rect class="cls-1" x="-20.42" y="1095.82" width="815.19" height="2.24" transform="translate(-327.02 178.73) rotate(-18.44)"/><rect class="cls-1" x="-45.14" y="1235.54" width="864.64" height="2.24" transform="translate(-512.16 303.69) rotate(-26.56)"/></g><g><path class="cls-1" d="m2.74,5.02l768.88,512.59v599.79L2.74,1629.99V5.02M.5.84v1633.33s773.36-515.57,773.36-515.57v-602.19L.5.84h0Z"/><rect class="cls-1" x="734.04" y="490.61" width="2.24" height="653.78"/><rect class="cls-1" x="688.1" y="459.98" width="2.24" height="715.05"/><rect class="cls-1" x="632.65" y="423.02" width="2.24" height="788.98"/><rect class="cls-1" x="564.42" y="377.53" width="2.24" height="879.95"/><rect class="cls-1" x="478.39" y="320.18" width="2.24" height="994.65"/><rect class="cls-1" x="366.59" y="245.64" width="2.24" height="1143.73"/><rect class="cls-1" x="215.35" y="144.82" width="2.24" height="1345.37"/><rect class="cls-1" x="386.06" y="-33.98" width="2.24" height="864.64" transform="translate(-142.26 566.5) rotate(-63.43)"/><rect class="cls-1" x="386.06" y="130.47" width="2.24" height="815.19" transform="translate(-245.71 735.22) rotate(-71.57)"/><rect class="cls-1" x="386.06" y="285.77" width="2.24" height="784.02" transform="translate(-345.03 948.27) rotate(-80.54)"/><rect class="cls-1" x=".5" y="816.38" width="773.36" height="2.24"/><rect class="cls-1" x="-4.83" y="956.1" width="784.02" height="2.24" transform="translate(-152.3 76.8) rotate(-9.48)"/><rect class="cls-1" x="-20.42" y="1095.82" width="815.19" height="2.24" transform="translate(-327.02 178.73) rotate(-18.44)"/><rect class="cls-1" x="-45.14" y="1235.54" width="864.64" height="2.24" transform="translate(-512.16 303.69) rotate(-26.56)"/></g></g></g></svg>