<svg width="337" height="30" viewBox="0 0 337 30" fill="none" xmlns="http://www.w3.org/2000/svg">
<path d="M1 1C1 0.723858 0.776142 0.5 0.5 0.5C0.223858 0.5 0 0.723858 0 1H1ZM335.72 6C335.996 6 336.191 5.6618 336.053 5.42265L333.833 1.57735C333.695 1.3382 333.305 1.3382 333.167 1.57735L330.947 5.42265C330.809 5.6618 331.004 6 331.28 6H335.72ZM0 2.23077C0 2.50691 0.223858 2.73077 0.5 2.73077C0.776142 2.73077 1 2.50691 1 2.23077H0ZM1 3.76923C1 3.49309 0.776142 3.26923 0.5 3.26923C0.223858 3.26923 0 3.49309 0 3.76923H1ZM2.80219 16.3883C2.93073 16.6327 3.23306 16.7266 3.47746 16.5981C3.72186 16.4696 3.81579 16.1672 3.68725 15.9228L2.80219 16.3883ZM13.5772 25.8127C13.3328 25.6842 13.0304 25.7781 12.9019 26.0225C12.7734 26.2669 12.8673 26.5693 13.1117 26.6978L13.5772 25.8127ZM32.472 29.5C32.7482 29.5 32.972 29.2761 32.972 29C32.972 28.7239 32.7482 28.5 32.472 28.5V29.5ZM42.4371 28.5C42.1609 28.5 41.9371 28.7239 41.9371 29C41.9371 29.2761 42.1609 29.5 42.4371 29.5V28.5ZM58.3811 29.5C58.6573 29.5 58.8811 29.2761 58.8811 29C58.8811 28.7239 58.6573 28.5 58.3811 28.5V29.5ZM68.3462 28.5C68.07 28.5 67.8462 28.7239 67.8462 29C67.8462 29.2761 68.07 29.5 68.3462 29.5V28.5ZM84.2902 29.5C84.5663 29.5 84.7902 29.2761 84.7902 29C84.7902 28.7239 84.5663 28.5 84.2902 28.5V29.5ZM94.2552 28.5C93.9791 28.5 93.7552 28.7239 93.7552 29C93.7552 29.2761 93.9791 29.5 94.2552 29.5V28.5ZM110.199 29.5C110.475 29.5 110.699 29.2761 110.699 29C110.699 28.7239 110.475 28.5 110.199 28.5V29.5ZM120.164 28.5C119.888 28.5 119.664 28.7239 119.664 29C119.664 29.2761 119.888 29.5 120.164 29.5V28.5ZM136.108 29.5C136.385 29.5 136.608 29.2761 136.608 29C136.608 28.7239 136.385 28.5 136.108 28.5V29.5ZM146.073 28.5C145.797 28.5 145.573 28.7239 145.573 29C145.573 29.2761 145.797 29.5 146.073 29.5V28.5ZM162.017 29.5C162.294 29.5 162.517 29.2761 162.517 29C162.517 28.7239 162.294 28.5 162.017 28.5V29.5ZM171.983 28.5C171.706 28.5 171.483 28.7239 171.483 29C171.483 29.2761 171.706 29.5 171.983 29.5V28.5ZM187.927 29.5C188.203 29.5 188.427 29.2761 188.427 29C188.427 28.7239 188.203 28.5 187.927 28.5V29.5ZM197.892 28.5C197.615 28.5 197.392 28.7239 197.392 29C197.392 29.2761 197.615 29.5 197.892 29.5V28.5ZM213.836 29.5C214.112 29.5 214.336 29.2761 214.336 29C214.336 28.7239 214.112 28.5 213.836 28.5V29.5ZM223.801 28.5C223.525 28.5 223.301 28.7239 223.301 29C223.301 29.2761 223.525 29.5 223.801 29.5V28.5ZM239.745 29.5C240.021 29.5 240.245 29.2761 240.245 29C240.245 28.7239 240.021 28.5 239.745 28.5V29.5ZM249.71 28.5C249.434 28.5 249.21 28.7239 249.21 29C249.21 29.2761 249.434 29.5 249.71 29.5V28.5ZM265.654 29.5C265.93 29.5 266.154 29.2761 266.154 29C266.154 28.7239 265.93 28.5 265.654 28.5V29.5ZM275.619 28.5C275.343 28.5 275.119 28.7239 275.119 29C275.119 29.2761 275.343 29.5 275.619 29.5V28.5ZM291.563 29.5C291.839 29.5 292.063 29.2761 292.063 29C292.063 28.7239 291.839 28.5 291.563 28.5V29.5ZM301.528 28.5C301.252 28.5 301.028 28.7239 301.028 29C301.028 29.2761 301.252 29.5 301.528 29.5V28.5ZM320.888 26.6978C321.133 26.5693 321.227 26.2669 321.098 26.0225C320.97 25.7781 320.667 25.6842 320.423 25.8127L320.888 26.6978ZM330.313 15.9228C330.184 16.1672 330.278 16.4696 330.523 16.5981C330.767 16.7266 331.069 16.6327 331.198 16.3883L330.313 15.9228ZM334 3.76923C334 3.49309 333.776 3.26923 333.5 3.26923C333.224 3.26923 333 3.49309 333 3.76923H334ZM333 2.23077C333 2.50691 333.224 2.73077 333.5 2.73077C333.776 2.73077 334 2.50691 334 2.23077H333ZM0 1V2.23077H1V1H0ZM0 3.76923V5H1V3.76923H0ZM0 5C0 9.11021 1.01253 12.9854 2.80219 16.3883L3.68725 15.9228C1.97127 12.66 1 8.94417 1 5H0ZM13.1117 26.6978C16.5146 28.4875 20.3898 29.5 24.5 29.5V28.5C20.5558 28.5 16.84 27.5287 13.5772 25.8127L13.1117 26.6978ZM24.5 29.5H32.472V28.5H24.5V29.5ZM42.4371 29.5H58.3811V28.5H42.4371V29.5ZM68.3462 29.5H84.2902V28.5H68.3462V29.5ZM94.2552 29.5H110.199V28.5H94.2552V29.5ZM120.164 29.5H136.108V28.5H120.164V29.5ZM146.073 29.5H162.017V28.5H146.073V29.5ZM171.983 29.5H187.927V28.5H171.983V29.5ZM197.892 29.5H213.836V28.5H197.892V29.5ZM223.801 29.5H239.745V28.5H223.801V29.5ZM249.71 29.5H265.654V28.5H249.71V29.5ZM275.619 29.5H291.563V28.5H275.619V29.5ZM301.528 29.5H309.5V28.5H301.528V29.5ZM309.5 29.5C313.61 29.5 317.485 28.4875 320.888 26.6978L320.423 25.8127C317.16 27.5287 313.444 28.5 309.5 28.5V29.5ZM331.198 16.3883C332.987 12.9854 334 9.1102 334 5H333C333 8.94417 332.029 12.66 330.313 15.9228L331.198 16.3883ZM334 5V3.76923H333V5H334Z" fill="#374151"/>
</svg>
