<svg width="337" height="118" viewBox="0 0 337 118" fill="none" xmlns="http://www.w3.org/2000/svg">
<path d="M0 117C0 117.276 0.223858 117.5 0.5 117.5C0.776142 117.5 1 117.276 1 117H0ZM331.28 40C331.004 40 330.809 40.3382 330.947 40.5774L333.167 44.4226C333.305 44.6618 333.695 44.6618 333.833 44.4226L336.053 40.5774C336.191 40.3382 335.996 40 335.72 40H331.28ZM1 109.923C1 109.647 0.776142 109.423 0.5 109.423C0.223858 109.423 0 109.647 0 109.923H1ZM0 101.077C0 101.353 0.223858 101.577 0.5 101.577C0.776142 101.577 1 101.353 1 101.077H0ZM1 86.9231C1 86.6469 0.776142 86.4231 0.5 86.4231C0.223858 86.4231 0 86.6469 0 86.9231H1ZM0 78.0769C0 78.3531 0.223858 78.5769 0.5 78.5769C0.776142 78.5769 1 78.3531 1 78.0769H0ZM1 63.9231C1 63.6469 0.776142 63.4231 0.5 63.4231C0.223858 63.4231 0 63.6469 0 63.9231H1ZM0 55.0769C0 55.3531 0.223858 55.5769 0.5 55.5769C0.776142 55.5769 1 55.3531 1 55.0769H0ZM1 40.9231C1 40.6469 0.776142 40.4231 0.5 40.4231C0.223858 40.4231 0 40.6469 0 40.9231H1ZM0 32.0769C0 32.3531 0.223858 32.5769 0.5 32.5769C0.776142 32.5769 1 32.3531 1 32.0769H0ZM3.68725 14.0772C3.81579 13.8328 3.72186 13.5304 3.47746 13.4019C3.23306 13.2734 2.93073 13.3673 2.80219 13.6117L3.68725 14.0772ZM13.1117 3.30219C12.8673 3.43073 12.7734 3.73305 12.9019 3.97746C13.0304 4.22186 13.3328 4.31579 13.5772 4.18725L13.1117 3.30219ZM32.472 1.5C32.7482 1.5 32.972 1.27614 32.972 1C32.972 0.723858 32.7482 0.5 32.472 0.5V1.5ZM42.4371 0.5C42.1609 0.5 41.9371 0.723858 41.9371 1C41.9371 1.27614 42.1609 1.5 42.4371 1.5V0.5ZM58.3811 1.5C58.6573 1.5 58.8811 1.27614 58.8811 1C58.8811 0.723858 58.6573 0.5 58.3811 0.5V1.5ZM68.3462 0.5C68.07 0.5 67.8462 0.723858 67.8462 1C67.8462 1.27614 68.07 1.5 68.3462 1.5V0.5ZM84.2902 1.5C84.5663 1.5 84.7902 1.27614 84.7902 1C84.7902 0.723858 84.5663 0.5 84.2902 0.5V1.5ZM94.2552 0.5C93.9791 0.5 93.7552 0.723858 93.7552 1C93.7552 1.27614 93.9791 1.5 94.2552 1.5V0.5ZM110.199 1.5C110.475 1.5 110.699 1.27614 110.699 1C110.699 0.723858 110.475 0.5 110.199 0.5V1.5ZM120.164 0.5C119.888 0.5 119.664 0.723858 119.664 1C119.664 1.27614 119.888 1.5 120.164 1.5V0.5ZM136.108 1.5C136.385 1.5 136.608 1.27614 136.608 1C136.608 0.723858 136.385 0.5 136.108 0.5V1.5ZM146.073 0.5C145.797 0.5 145.573 0.723858 145.573 1C145.573 1.27614 145.797 1.5 146.073 1.5V0.5ZM162.017 1.5C162.294 1.5 162.517 1.27614 162.517 1C162.517 0.723858 162.294 0.5 162.017 0.5V1.5ZM171.983 0.5C171.706 0.5 171.483 0.723858 171.483 1C171.483 1.27614 171.706 1.5 171.983 1.5V0.5ZM187.927 1.5C188.203 1.5 188.427 1.27614 188.427 1C188.427 0.723858 188.203 0.5 187.927 0.5V1.5ZM197.892 0.5C197.615 0.5 197.392 0.723858 197.392 1C197.392 1.27614 197.615 1.5 197.892 1.5V0.5ZM213.836 1.5C214.112 1.5 214.336 1.27614 214.336 1C214.336 0.723858 214.112 0.5 213.836 0.5V1.5ZM223.801 0.5C223.525 0.5 223.301 0.723858 223.301 1C223.301 1.27614 223.525 1.5 223.801 1.5V0.5ZM239.745 1.5C240.021 1.5 240.245 1.27614 240.245 1C240.245 0.723858 240.021 0.5 239.745 0.5V1.5ZM249.71 0.5C249.434 0.5 249.21 0.723858 249.21 1C249.21 1.27614 249.434 1.5 249.71 1.5V0.5ZM265.654 1.5C265.93 1.5 266.154 1.27614 266.154 1C266.154 0.723858 265.93 0.5 265.654 0.5V1.5ZM275.619 0.5C275.343 0.5 275.119 0.723858 275.119 1C275.119 1.27614 275.343 1.5 275.619 1.5V0.5ZM291.563 1.5C291.839 1.5 292.063 1.27614 292.063 1C292.063 0.723858 291.839 0.5 291.563 0.5V1.5ZM301.528 0.5C301.252 0.5 301.028 0.723858 301.028 1C301.028 1.27614 301.252 1.5 301.528 1.5V0.5ZM320.423 4.18726C320.667 4.31579 320.97 4.22186 321.098 3.97746C321.227 3.73306 321.133 3.43073 320.888 3.30219L320.423 4.18726ZM331.198 13.6117C331.069 13.3673 330.767 13.2734 330.523 13.4019C330.278 13.5304 330.184 13.8328 330.313 14.0772L331.198 13.6117ZM333 31.1538C333 31.43 333.224 31.6538 333.5 31.6538C333.776 31.6538 334 31.43 334 31.1538H333ZM334 38.8462C334 38.57 333.776 38.3462 333.5 38.3462C333.224 38.3462 333 38.57 333 38.8462H334ZM1 117V109.923H0V117H1ZM1 101.077V86.9231H0V101.077H1ZM1 78.0769V63.9231H0V78.0769H1ZM1 55.0769V40.9231H0V55.0769H1ZM1 32.0769V25H0V32.0769H1ZM1 25C1 21.0558 1.97127 17.34 3.68725 14.0772L2.80219 13.6117C1.01253 17.0146 0 20.8898 0 25H1ZM13.5772 4.18725C16.84 2.47127 20.5558 1.5 24.5 1.5V0.5C20.3898 0.5 16.5146 1.51253 13.1117 3.30219L13.5772 4.18725ZM24.5 1.5H32.472V0.5H24.5V1.5ZM42.4371 1.5H58.3811V0.5H42.4371V1.5ZM68.3462 1.5H84.2902V0.5H68.3462V1.5ZM94.2552 1.5H110.199V0.5H94.2552V1.5ZM120.164 1.5H136.108V0.5H120.164V1.5ZM146.073 1.5H162.017V0.5H146.073V1.5ZM171.983 1.5H187.927V0.5H171.983V1.5ZM197.892 1.5H213.836V0.5H197.892V1.5ZM223.801 1.5H239.745V0.5H223.801V1.5ZM249.71 1.5H265.654V0.5H249.71V1.5ZM275.619 1.5H291.563V0.5H275.619V1.5ZM301.528 1.5H309.5V0.5H301.528V1.5ZM309.5 1.5C313.444 1.5 317.16 2.47127 320.423 4.18726L320.888 3.30219C317.485 1.51253 313.61 0.5 309.5 0.5V1.5ZM330.313 14.0772C332.029 17.34 333 21.0558 333 25H334C334 20.8898 332.987 17.0146 331.198 13.6117L330.313 14.0772ZM333 25V31.1538H334V25H333ZM333 38.8462V40.5H334V38.8462H333Z" fill="#374151"/>
</svg>
