<svg width="337" height="102" viewBox="0 0 337 102" fill="none" xmlns="http://www.w3.org/2000/svg">
<path d="M1 1C1 0.723858 0.776142 0.5 0.5 0.5C0.223858 0.5 0 0.723858 0 1H1ZM335.72 78C335.996 78 336.191 77.6618 336.053 77.4227L333.833 73.5773C333.695 73.3382 333.305 73.3382 333.167 73.5773L330.947 77.4227C330.809 77.6618 331.004 78 331.28 78H335.72ZM0 8.79487C0 9.07101 0.223858 9.29487 0.5 9.29487C0.776142 9.29487 1 9.07101 1 8.79487H0ZM1 18.5385C1 18.2623 0.776142 18.0385 0.5 18.0385C0.223858 18.0385 0 18.2623 0 18.5385H1ZM0 34.1282C0 34.4043 0.223858 34.6282 0.5 34.6282C0.776142 34.6282 1 34.4043 1 34.1282H0ZM1 43.8718C1 43.5957 0.776142 43.3718 0.5 43.3718C0.223858 43.3718 0 43.5957 0 43.8718H1ZM0 59.4615C0 59.7377 0.223858 59.9615 0.5 59.9615C0.776142 59.9615 1 59.7377 1 59.4615H0ZM1 69.2051C1 68.929 0.776142 68.7051 0.5 68.7051C0.223858 68.7051 0 68.929 0 69.2051H1ZM2.80219 88.3883C2.93073 88.6327 3.23306 88.7266 3.47746 88.5981C3.72186 88.4696 3.81579 88.1672 3.68725 87.9228L2.80219 88.3883ZM13.5772 97.8127C13.3328 97.6842 13.0304 97.7781 12.9019 98.0225C12.7734 98.2669 12.8673 98.5693 13.1117 98.6978L13.5772 97.8127ZM32.472 101.5C32.7482 101.5 32.972 101.276 32.972 101C32.972 100.724 32.7482 100.5 32.472 100.5V101.5ZM42.4371 100.5C42.1609 100.5 41.9371 100.724 41.9371 101C41.9371 101.276 42.1609 101.5 42.4371 101.5V100.5ZM58.3811 101.5C58.6573 101.5 58.8811 101.276 58.8811 101C58.8811 100.724 58.6573 100.5 58.3811 100.5V101.5ZM68.3462 100.5C68.07 100.5 67.8462 100.724 67.8462 101C67.8462 101.276 68.07 101.5 68.3462 101.5V100.5ZM84.2902 101.5C84.5663 101.5 84.7902 101.276 84.7902 101C84.7902 100.724 84.5663 100.5 84.2902 100.5V101.5ZM94.2552 100.5C93.9791 100.5 93.7552 100.724 93.7552 101C93.7552 101.276 93.9791 101.5 94.2552 101.5V100.5ZM110.199 101.5C110.475 101.5 110.699 101.276 110.699 101C110.699 100.724 110.475 100.5 110.199 100.5V101.5ZM120.164 100.5C119.888 100.5 119.664 100.724 119.664 101C119.664 101.276 119.888 101.5 120.164 101.5V100.5ZM136.108 101.5C136.385 101.5 136.608 101.276 136.608 101C136.608 100.724 136.385 100.5 136.108 100.5V101.5ZM146.073 100.5C145.797 100.5 145.573 100.724 145.573 101C145.573 101.276 145.797 101.5 146.073 101.5V100.5ZM162.017 101.5C162.294 101.5 162.517 101.276 162.517 101C162.517 100.724 162.294 100.5 162.017 100.5V101.5ZM171.983 100.5C171.706 100.5 171.483 100.724 171.483 101C171.483 101.276 171.706 101.5 171.983 101.5V100.5ZM187.927 101.5C188.203 101.5 188.427 101.276 188.427 101C188.427 100.724 188.203 100.5 187.927 100.5V101.5ZM197.892 100.5C197.615 100.5 197.392 100.724 197.392 101C197.392 101.276 197.615 101.5 197.892 101.5V100.5ZM213.836 101.5C214.112 101.5 214.336 101.276 214.336 101C214.336 100.724 214.112 100.5 213.836 100.5V101.5ZM223.801 100.5C223.525 100.5 223.301 100.724 223.301 101C223.301 101.276 223.525 101.5 223.801 101.5V100.5ZM239.745 101.5C240.021 101.5 240.245 101.276 240.245 101C240.245 100.724 240.021 100.5 239.745 100.5V101.5ZM249.71 100.5C249.434 100.5 249.21 100.724 249.21 101C249.21 101.276 249.434 101.5 249.71 101.5V100.5ZM265.654 101.5C265.93 101.5 266.154 101.276 266.154 101C266.154 100.724 265.93 100.5 265.654 100.5V101.5ZM275.619 100.5C275.343 100.5 275.119 100.724 275.119 101C275.119 101.276 275.343 101.5 275.619 101.5V100.5ZM291.563 101.5C291.839 101.5 292.063 101.276 292.063 101C292.063 100.724 291.839 100.5 291.563 100.5V101.5ZM301.528 100.5C301.252 100.5 301.028 100.724 301.028 101C301.028 101.276 301.252 101.5 301.528 101.5V100.5ZM320.888 98.6978C321.133 98.5693 321.227 98.2669 321.098 98.0225C320.97 97.7781 320.667 97.6842 320.423 97.8127L320.888 98.6978ZM330.313 87.9228C330.184 88.1672 330.278 88.4696 330.523 88.5981C330.767 88.7266 331.069 88.6327 331.198 88.3883L330.313 87.9228ZM334 75.7692C334 75.4931 333.776 75.2692 333.5 75.2692C333.224 75.2692 333 75.4931 333 75.7692H334ZM333 74.2308C333 74.5069 333.224 74.7308 333.5 74.7308C333.776 74.7308 334 74.5069 334 74.2308H333ZM0 1V8.79487H1V1H0ZM0 18.5385V34.1282H1V18.5385H0ZM0 43.8718V59.4615H1V43.8718H0ZM0 69.2051V77H1V69.2051H0ZM0 77C0 81.1102 1.01253 84.9854 2.80219 88.3883L3.68725 87.9228C1.97127 84.66 1 80.9442 1 77H0ZM13.1117 98.6978C16.5146 100.487 20.3898 101.5 24.5 101.5V100.5C20.5558 100.5 16.84 99.5287 13.5772 97.8127L13.1117 98.6978ZM24.5 101.5H32.472V100.5H24.5V101.5ZM42.4371 101.5H58.3811V100.5H42.4371V101.5ZM68.3462 101.5H84.2902V100.5H68.3462V101.5ZM94.2552 101.5H110.199V100.5H94.2552V101.5ZM120.164 101.5H136.108V100.5H120.164V101.5ZM146.073 101.5H162.017V100.5H146.073V101.5ZM171.983 101.5H187.927V100.5H171.983V101.5ZM197.892 101.5H213.836V100.5H197.892V101.5ZM223.801 101.5H239.745V100.5H223.801V101.5ZM249.71 101.5H265.654V100.5H249.71V101.5ZM275.619 101.5H291.563V100.5H275.619V101.5ZM301.528 101.5H309.5V100.5H301.528V101.5ZM309.5 101.5C313.61 101.5 317.485 100.487 320.888 98.6978L320.423 97.8127C317.16 99.5287 313.444 100.5 309.5 100.5V101.5ZM331.198 88.3883C332.987 84.9854 334 81.1102 334 77H333C333 80.9442 332.029 84.66 330.313 87.9228L331.198 88.3883ZM334 77V75.7692H333V77H334Z" fill="#374151"/>
</svg>
