<svg width="1620" height="552" viewBox="0 0 1620 552" fill="none" xmlns="http://www.w3.org/2000/svg">
<g clip-path="url(#clip0_99_540)">
<mask id="mask0_99_540" style="mask-type:luminance" maskUnits="userSpaceOnUse" x="0" y="-349" width="1621" height="1081">
<path d="M1620 -348H0.759277V731.492H1620V-348Z" fill="white" stroke="white"/>
</mask>
<g mask="url(#mask0_99_540)">
<g opacity="0.1">
<path d="M1570.08 -174.327C1561.22 -194.439 1552.83 -213.435 1544.42 -231.254C1518.85 -285.426 1496.4 -326.76 1479.51 -350.792C1465.82 -370.262 1456.62 -378.626 1456.23 -378.975L1455.59 -379.549L1454.84 -379.112C1454.53 -378.932 1423.43 -360.889 1371.31 -330.057C1364.53 -326.043 1357.41 -321.811 1349.99 -317.386C1300.52 -287.932 1238.95 -251.272 1165.81 -215.037C1069.8 -167.496 982.501 -138.764 898.594 -127.222C815.241 -115.766 718.738 -119.886 594.899 -140.185C571.272 -144.062 547.432 -148.213 524.372 -152.226C441.88 -166.586 363.962 -180.154 288.998 -183.245C204.112 -186.717 120.597 -174.501 53.8285 -148.855C-17.6078 -121.357 -67.2867 -88.6054 -96.0557 -66.3307V-63.6756C-67.7042 -85.8258 -17.7636 -119.107 54.7136 -146.997C121.176 -172.532 204.348 -184.691 288.904 -181.232C363.706 -178.147 441.543 -164.598 523.961 -150.251C547.021 -146.237 570.873 -142.08 594.506 -138.203C718.6 -117.867 815.334 -113.741 898.936 -125.227C983.118 -136.813 1070.64 -165.614 1166.89 -213.267C1240.11 -249.54 1301.72 -286.224 1351.23 -315.697C1358.65 -320.116 1365.75 -324.348 1372.54 -328.362C1420.12 -356.507 1450.18 -373.996 1455.28 -376.962C1457.58 -374.75 1466.08 -366.149 1477.64 -349.708C1494.47 -325.769 1516.85 -284.535 1542.38 -230.462C1550.78 -212.662 1559.15 -193.678 1568.02 -173.579C1594.1 -114.426 1623.37 -48.1319 1663.12 8.63326V4.80029C1624.43 -51.2045 1595.72 -116.221 1570.09 -174.327H1570.08Z" fill="url(#paint0_linear_99_540)" style="mix-blend-mode:multiply"/>
</g>
<g opacity="0.1">
<path d="M45.2091 -145.24C44.9535 -144.853 38.9454 -135.548 31.99 -115.86C23.5326 -91.8962 15.0876 -52.7502 7.56506 -2.65373C5.3463 12.1172 3.35816 27.6298 1.25159 44.0585C-10.7521 137.676 -25.3485 250.951 -96.0557 316.03V318.916C-23.4352 253.612 -8.67671 138.948 3.4641 44.2953C5.57067 27.8791 7.55883 12.3727 9.77135 -2.3795C17.2815 -52.3575 25.6953 -91.3851 34.1153 -115.243C40.9772 -134.682 47.0663 -144.118 47.1287 -144.205L45.2091 -145.233V-145.24Z" fill="url(#paint1_linear_99_540)" style="mix-blend-mode:multiply"/>
</g>
<g opacity="0.1">
<path d="M112.408 -167.022C112.177 -166.636 106.736 -157.368 100.616 -137.798C93.1494 -113.878 85.9011 -74.6448 79.6687 -24.3364C78.1293 -11.9151 76.7082 0.898784 75.2 14.4668C69.946 61.821 63.9878 115.501 50.7875 169.468C32.3332 244.831 -0.786049 296.242 -47.6416 322.288C-61.434 329.941 -77.6696 336.217 -96.0615 341.172V343.26C-77.2208 338.236 -60.5926 331.836 -46.4761 324.008C0.915412 297.669 34.3712 245.822 52.9626 169.91C66.1879 115.825 72.1523 62.089 77.4125 14.6725C78.9145 1.1107 80.3418 -11.697 81.8749 -24.1058C88.0949 -74.3082 95.3183 -113.429 102.754 -137.25C108.793 -156.577 114.302 -165.975 114.358 -166.069L112.395 -167.022H112.408Z" fill="url(#paint2_linear_99_540)" style="mix-blend-mode:multiply"/>
</g>
<g opacity="0.1">
<path d="M184.823 -179.718C184.623 -179.331 179.843 -170.051 174.657 -150.531C168.307 -126.586 162.423 -87.2156 157.643 -36.6766C156.465 -24.1743 155.393 -11.2856 154.265 2.3572C150.326 49.9357 145.857 103.865 134.795 158.2C119.126 235.052 90.7375 285.08 48.0203 311.156C24.6735 325.379 -6.40772 334.752 -44.3883 339.028C-60.8295 340.873 -78.2305 341.82 -96.0615 342.269V344.282C-78.1432 343.827 -60.655 342.88 -44.114 341.022C-5.79071 336.71 25.6271 327.224 49.2668 312.814C92.5075 286.42 121.195 235.956 136.989 158.549C148.07 104.102 152.545 50.1227 156.49 2.4943C157.618 -11.1423 158.684 -24.031 159.868 -36.5208C164.636 -86.9601 170.507 -126.231 176.833 -150.082C181.949 -169.372 186.798 -178.783 186.842 -178.882L184.823 -179.743V-179.718Z" fill="url(#paint3_linear_99_540)" style="mix-blend-mode:multiply"/>
</g>
<g opacity="0.1">
<path d="M261.818 -183.264C261.644 -182.878 257.611 -173.535 253.448 -153.996C248.331 -129.958 243.937 -90.4004 240.752 -39.5997C239.961 -27.0101 239.282 -14.0279 238.565 -0.291603C236.059 47.5175 233.224 101.709 224.548 156.442C216.708 205.803 200.541 275.469 150.905 310.396C130.818 324.5 102.76 334.198 69.653 338.398C33.8538 342.954 -7.11835 342.163 -46.738 341.396L-49.1687 341.353C-64.6189 341.053 -80.2562 340.767 -96.043 340.617V342.63C-80.2686 342.78 -64.6439 343.067 -49.2123 343.366L-46.7817 343.416C-7.07473 344.182 33.9909 344.974 69.9708 340.399C103.402 336.117 131.89 326.314 152.283 311.992C202.56 276.616 218.87 206.439 226.767 156.735C235.461 101.902 238.297 47.6671 240.802 -0.191901C241.519 -13.9282 242.205 -26.9042 242.99 -39.4875C246.175 -90.201 250.55 -129.665 255.648 -153.616C259.768 -172.943 263.862 -182.429 263.9 -182.522L261.831 -183.264H261.818Z" fill="url(#paint4_linear_99_540)" style="mix-blend-mode:multiply"/>
</g>
<g opacity="0.1">
<path d="M342.36 -178.708C342.329 -178.615 338.988 -168.879 335.909 -149.253C332.108 -125.059 329.315 -85.2648 327.82 -34.1775C327.446 -21.5006 327.178 -8.27539 326.904 5.39861C325.925 53.4695 324.816 107.947 318.708 163.123C314.457 201.422 308.431 230.733 299.73 255.357C290.001 282.874 276.396 304.238 259.294 318.86C223.644 349.28 157.057 352.914 90.4069 352.303L88.4437 352.284C48.7804 351.923 7.75839 351.543 -34.2733 355.357C-55.5384 357.289 -76.1366 360.318 -96.0493 364.301V366.363C-76.0743 362.35 -55.4075 359.302 -34.0551 357.364C7.85811 353.562 48.8115 353.942 88.4125 354.304L90.382 354.322C157.499 354.933 224.604 351.237 260.827 320.324C278.203 305.466 292.008 283.815 301.855 255.968C310.606 231.2 316.664 201.764 320.927 163.323C327.047 108.066 328.156 53.5381 329.135 5.42977C329.415 -8.238 329.683 -21.4571 330.051 -34.1339C331.54 -85.1465 334.333 -124.86 338.116 -148.979C341.17 -168.418 344.454 -178.022 344.485 -178.116L342.36 -178.714V-178.708Z" fill="url(#paint5_linear_99_540)" style="mix-blend-mode:multiply"/>
</g>
<g opacity="0.1">
<path d="M427.433 -167.583L425.258 -168.032C425.233 -167.932 422.771 -158.066 420.808 -138.297C418.383 -113.897 417.243 -73.8283 417.505 -22.4355C417.573 -9.67769 417.735 3.64105 417.903 17.4023C418.502 65.7537 419.181 120.562 415.759 176.193C413.372 214.821 409.253 244.457 402.79 269.449C395.46 297.769 385.146 318.991 371.266 334.335C342.547 366.015 282.26 371.113 232.949 372.016L231.435 372.041C198.552 372.646 164.548 373.263 129.902 378.124C129.378 378.199 128.849 378.274 128.319 378.349C89.3909 383.976 51.7344 395.189 19.3132 410.801C-16.6355 428.127 -50.8392 452.484 -82.3567 483.197C-86.9874 487.709 -91.5371 492.402 -96.0557 497.176V500.299C-91.0011 494.908 -85.9092 489.629 -80.7176 484.568C-49.3746 454.023 -15.3641 429.797 20.3665 412.577C53.0059 396.859 90.9054 385.659 130.251 380.119C164.747 375.276 198.677 374.659 231.485 374.054L232.993 374.029C282.79 373.113 343.694 367.922 372.992 335.613C387.096 320.025 397.554 298.536 404.965 269.91C411.459 244.8 415.591 215.058 417.984 176.305C421.412 120.599 420.733 65.7599 420.128 17.3774C419.96 3.61613 419.792 -9.69017 419.729 -22.448C419.468 -73.7847 420.602 -113.778 423.02 -138.122C424.971 -157.736 427.402 -167.49 427.427 -167.583H427.433Z" fill="url(#paint6_linear_99_540)" style="mix-blend-mode:multiply"/>
</g>
<g opacity="0.1">
<path d="M28.9302 748.967L26.7676 748.494C26.9047 747.983 40.9028 696.372 75.4804 622.05C94.0033 582.262 113.268 548.987 134.371 520.324C158.011 488.227 184 462.43 211.616 443.64C236.87 426.475 266.517 413.68 297.356 406.631C324.411 400.455 351.31 398.567 377.33 396.734L378.053 396.684C433.024 392.808 468.991 378.38 484.971 353.768C495.467 337.582 502.59 316.442 507.389 287.242C511.565 261.839 513.734 231.848 514.214 192.864C514.906 136.741 512.406 81.5778 510.2 32.9086C509.571 19.0788 508.966 5.69774 508.461 -7.12864C506.411 -58.833 505.869 -99.1882 506.897 -123.831C507.732 -143.781 509.309 -153.784 509.321 -153.884L511.528 -153.597C511.509 -153.498 509.951 -143.582 509.122 -123.756C508.1 -99.1632 508.642 -58.858 510.686 -7.20343C511.191 5.61672 511.802 18.9916 512.425 32.8214C514.631 81.5155 517.131 136.71 516.439 192.883C515.953 231.961 513.777 262.032 509.583 287.529C504.74 316.99 497.523 338.355 486.878 354.777C470.499 379.988 433.934 394.759 378.209 398.679L377.48 398.729C351.559 400.548 324.754 402.437 297.879 408.57C267.328 415.556 237.954 428.233 212.931 445.241C185.514 463.889 159.7 489.523 136.203 521.427C115.181 549.984 95.9789 583.153 77.5122 622.823C43.0031 696.983 29.0424 748.45 28.9053 748.961L28.9302 748.967Z" fill="url(#paint7_linear_99_540)" style="mix-blend-mode:multiply"/>
</g>
<g opacity="0.1">
<path d="M286.361 793.984L284.149 793.723C284.224 793.205 291.952 740.822 313.784 663.888C325.589 622.324 337.704 588.831 351.927 558.498C367.863 524.531 385.077 498.024 404.554 477.469C422.148 458.922 443.139 444.575 465.264 435.967C484.666 428.432 505.307 425.042 523.525 422.05C540.552 419.258 556.881 416.161 569.564 409.099C582.235 402.032 592.406 389.816 598.975 373.78C605.862 356.934 610.081 335.251 612.244 305.553C614.145 279.383 614.35 249.923 612.911 210.041C610.867 153.488 606.541 97.9817 602.727 49.0071C601.642 35.0713 600.589 21.5967 599.636 8.67686C595.796 -43.3267 593.571 -83.9747 593.191 -108.873C592.892 -129.017 593.578 -139.157 593.584 -139.257L595.809 -139.126C595.803 -139.026 595.117 -128.954 595.422 -108.898C595.796 -84.0308 598.028 -43.4202 601.861 8.546C602.814 21.4596 603.861 34.9342 604.946 48.8637C608.76 97.857 613.085 153.382 615.136 209.973C616.582 249.923 616.376 279.439 614.469 305.684C612.294 335.588 608.031 357.445 601.063 374.478C594.319 390.944 583.83 403.509 570.73 410.813C557.716 418.062 541.163 421.203 523.918 424.032C505.819 427.005 485.308 430.371 466.137 437.812C444.317 446.295 423.606 460.461 406.236 478.772C386.91 499.165 369.814 525.503 353.971 559.277C339.792 589.516 327.708 622.916 315.934 664.381C294.133 741.189 286.424 793.461 286.349 793.978L286.361 793.984Z" fill="url(#paint8_linear_99_540)" style="mix-blend-mode:multiply"/>
</g>
<g opacity="0.1">
<path d="M542.148 833.891L539.917 833.803C539.923 833.666 540.59 819.805 542.229 795.268C543.83 771.348 546.23 738.983 550.599 700.666C555.479 657.924 561.057 623.34 568.156 591.835C576.102 556.572 585.314 528.787 596.32 506.905C606.417 486.849 618.452 471.549 632.088 461.427C643.917 452.664 657.878 447.653 668.074 443.995C678.402 440.287 688.947 435.837 696.058 428.432C703.699 420.474 709.19 407.89 712.387 391.032C715.734 373.338 717.018 351.811 716.532 321.234C716.12 295.021 714.382 264.326 711.06 224.65C706.279 167.604 700.122 111.674 694.693 62.3258C693.154 48.3714 691.67 34.8719 690.281 21.9333C684.659 -30.357 680.751 -71.2917 678.975 -96.4334C677.542 -116.764 677.355 -127.01 677.348 -127.11L679.58 -127.141C679.58 -127.041 679.773 -116.838 681.2 -96.558C682.976 -71.4413 686.878 -30.5315 692.493 21.7401C693.883 34.6787 695.373 48.1719 696.906 62.1264C702.334 111.487 708.492 167.43 713.272 224.494C716.6 264.22 718.339 294.952 718.757 321.209C719.237 351.917 717.953 373.562 714.581 391.374C711.265 408.844 705.756 421.396 697.735 429.754C690.306 437.488 679.48 442.075 668.885 445.871C658.825 449.479 645.052 454.422 633.491 462.985C620.116 472.907 608.287 487.965 598.34 507.74C587.402 529.485 578.24 557.126 570.325 592.24C563.245 623.676 557.679 658.198 552.805 700.872C548.436 739.151 546.037 771.491 544.441 795.387C542.796 819.905 542.135 833.754 542.129 833.891H542.148Z" fill="url(#paint9_linear_99_540)" style="mix-blend-mode:multiply"/>
</g>
<g opacity="0.1">
<path d="M796.781 863.252L794.556 863.389C794.556 863.389 793.509 849.36 791.813 823.95C790.187 799.456 788.074 766.3 786.235 727.017C784.185 683.221 783.219 647.671 783.194 615.144C783.169 578.317 784.372 550.358 786.965 527.148C789.345 505.914 792.873 490.134 797.74 478.903C801.424 470.427 806.478 464.306 811.389 458.965C814.68 455.382 819.336 449.679 821.673 441.608C824.266 432.658 825.288 420.598 825.007 402.493C824.721 384.325 823.188 362.406 820.034 331.431C817.335 304.905 813.646 273.911 808.417 233.893C800.9 176.367 792.904 119.995 785.849 70.2535C783.867 56.2928 781.954 42.7933 780.134 29.8485C772.717 -22.8718 767.127 -64.0558 763.979 -89.2599C761.418 -109.746 760.358 -120.054 760.346 -120.16L762.564 -120.347C762.571 -120.248 763.63 -109.952 766.192 -89.4905C769.339 -64.2927 774.923 -23.1211 782.346 29.5867C784.166 42.5315 786.079 56.031 788.061 69.9917C795.117 119.739 803.119 176.118 810.635 233.656C815.864 273.693 819.56 304.706 822.259 331.244C825.419 362.281 826.952 384.244 827.245 402.468C827.532 420.76 826.484 432.988 823.842 442.119C821.386 450.583 816.544 456.528 813.116 460.255C808.323 465.472 803.399 471.43 799.828 479.644C795.029 490.701 791.552 506.307 789.196 527.354C786.603 550.489 785.413 578.385 785.438 615.144C785.462 647.64 786.429 683.159 788.473 726.929C790.311 766.2 792.418 799.344 794.045 823.832C795.734 849.235 796.781 863.252 796.781 863.258V863.252Z" fill="url(#paint10_linear_99_540)" style="mix-blend-mode:multiply"/>
</g>
<g opacity="0.1">
<path d="M1051.56 878.041C1051.56 878.041 1048.75 863.676 1043.58 837.674C1038.56 812.401 1031.74 778.285 1023.57 738.503C1014.36 693.642 1006.66 657.294 999.348 624.119C991.059 586.506 984.353 557.918 978.238 534.16C972.598 512.222 968.005 496.559 963.792 484.867C960.694 476.279 957.647 469.959 954.817 464.412C952.835 460.53 949.887 454.378 947.195 445.815C944.272 436.522 941.199 424.145 937.223 405.672C933.253 387.242 928.878 365.067 923.025 333.786C917.971 306.775 912.474 276.448 905.2 235.47C894.992 177.95 885.182 121.497 876.531 71.6932L869.302 30.1165C860.102 -22.7222 852.823 -64.1306 848.248 -89.64C844.515 -110.463 842.608 -120.665 842.608 -120.665L844.808 -121.002C844.808 -121.002 846.715 -110.799 850.455 -89.9641C855.029 -64.4547 862.309 -23.0401 871.508 29.7987L878.737 71.3754C887.388 121.179 897.198 177.626 907.407 235.145C914.68 276.124 920.177 306.438 925.225 333.444C931.071 364.712 935.447 386.868 939.41 405.279C943.374 423.69 946.434 436.017 949.339 445.254C951.987 453.674 954.892 459.732 956.843 463.552C959.703 469.155 962.782 475.537 965.917 484.225C970.149 495.974 974.755 511.692 980.414 533.686C986.528 557.469 993.24 586.076 1001.54 623.708C1008.86 656.895 1016.56 693.249 1025.77 738.117C1033.94 777.905 1040.75 812.021 1045.78 837.3C1050.95 863.302 1053.76 877.667 1053.76 877.667L1051.57 878.023L1051.56 878.041Z" fill="url(#paint11_linear_99_540)" style="mix-blend-mode:multiply"/>
</g>
<g opacity="0.1">
<path d="M1317.23 874.146C1317.18 873.997 1312.38 859.113 1303.53 832.819C1294.9 807.191 1283.05 772.52 1267.86 731.523C1250.96 685.92 1236.04 648.986 1220.87 615.281C1204.02 577.793 1188.48 548.17 1173.36 524.705C1159.67 503.446 1145.96 487.074 1132.64 476.036C1122.06 467.292 1110.92 461.639 1100.42 456.597C1091.71 452.415 1081.74 447.024 1073.86 438.741C1065.4 429.847 1057.6 416.759 1050.01 398.729C1042.36 380.567 1034.82 357.644 1026.3 326.588C1018.93 299.72 1011.23 268.302 1002.09 227.704C988.983 169.505 977.191 112.36 966.79 61.9394C963.873 47.8167 961.062 34.1676 958.338 21.0857C947.27 -32.0833 938.251 -73.6725 932.262 -99.1819C927.413 -119.811 924.602 -130.114 924.577 -130.213L926.74 -130.699C926.771 -130.6 929.588 -120.266 934.443 -99.5995C940.439 -74.0776 949.463 -32.4698 960.532 20.718C963.256 33.7999 966.073 47.4552 968.983 61.5779C979.385 111.992 991.171 169.131 1004.28 227.305C1013.42 267.872 1021.11 299.265 1028.47 326.108C1036.97 357.083 1044.48 379.931 1052.09 398.018C1059.6 415.83 1067.27 428.719 1075.55 437.438C1083.19 445.466 1092.94 450.732 1101.47 454.827C1112.09 459.931 1123.37 465.653 1134.14 474.559C1147.63 485.734 1161.48 502.268 1175.29 523.702C1190.45 547.242 1206.03 576.952 1222.94 614.533C1238.11 648.276 1253.05 685.253 1269.97 730.893C1285.16 771.909 1297.02 806.599 1305.65 832.239C1314.51 858.546 1319.32 873.442 1319.37 873.585L1317.23 874.152L1317.23 874.146Z" fill="url(#paint12_linear_99_540)" style="mix-blend-mode:multiply"/>
</g>
<g opacity="0.1">
<path d="M1528.45 702.205C1503.1 656.553 1479.27 618.148 1455.59 584.786C1428.92 547.242 1403.67 517.856 1378.39 494.951C1355.44 474.185 1331.81 458.585 1308.14 448.594C1287.79 440.006 1266.96 435.662 1250.23 432.172C1234.56 428.9 1218.11 425.054 1204.43 417.301C1190.55 409.43 1177.85 396.697 1166.65 379.47C1155.15 361.751 1144.5 339.078 1133.12 308.121C1123.28 281.322 1113.46 249.848 1102.23 209.081C1086.16 150.739 1072.36 93.2824 1060.19 42.5877C1056.76 28.3091 1053.45 14.5105 1050.23 1.29767C1037.2 -52.1955 1026.36 -93.9342 1018.88 -119.412C1012.82 -140.073 1009.08 -150.325 1009.04 -150.425L1006.93 -149.789C1006.96 -149.69 1010.68 -139.481 1016.73 -118.895C1024.2 -93.4418 1035.03 -51.728 1048.06 1.73395C1051.28 14.9467 1054.59 28.7454 1058.02 43.0177C1070.2 93.7249 1084 151.194 1100.08 209.567C1111.33 250.39 1121.15 281.908 1131.02 308.757C1142.44 339.851 1153.16 362.643 1164.74 380.492C1176.12 398.006 1189.08 410.963 1203.25 419.009C1217.23 426.93 1233.89 430.826 1249.74 434.141C1266.37 437.613 1287.07 441.926 1307.21 450.427C1330.65 460.324 1354.07 475.78 1376.82 496.385C1402 519.183 1427.15 548.463 1453.73 585.883C1477.37 619.177 1501.17 657.525 1526.47 703.115C1549.57 744.729 1567.26 780.142 1580.09 806.35C1593.26 833.23 1600.34 848.512 1600.41 848.662L1602.47 847.883C1602.4 847.733 1595.31 832.432 1582.13 805.527C1569.29 779.301 1551.57 743.857 1528.46 702.205H1528.45Z" fill="url(#paint13_linear_99_540)" style="mix-blend-mode:multiply"/>
</g>
<g opacity="0.1">
<path d="M1663.12 493.262C1640.27 474.571 1617.59 458.666 1595.31 445.79C1562.41 426.787 1526.68 412.683 1491.99 405.005C1461.9 398.355 1432.14 396.298 1405.89 394.49C1348.83 390.545 1309.22 375.743 1284.77 349.23C1269.08 332.185 1255.03 309.916 1240.56 279.147C1228.05 252.515 1215.94 221.06 1202.47 180.157C1183.2 121.646 1167.23 63.8154 1153.13 12.7903C1149.17 -1.56925 1145.34 -15.4427 1141.6 -28.7178C1126.48 -82.4478 1113.7 -124.261 1104.64 -149.646C1097.3 -170.213 1092.57 -180.316 1092.53 -180.416L1090.48 -179.63C1090.52 -179.531 1095.21 -169.503 1102.52 -149.035C1111.57 -123.688 1124.33 -81.9118 1139.43 -28.2317C1143.17 -14.9566 1147 -1.0831 1150.96 13.2702C1165.06 64.314 1181.04 122.176 1200.32 180.73C1213.82 221.708 1225.95 253.226 1238.5 279.932C1253.05 310.888 1267.21 333.319 1283.04 350.521C1307.9 377.47 1348.02 392.509 1405.7 396.497C1431.87 398.305 1461.53 400.355 1491.44 406.962C1525.9 414.584 1561.4 428.601 1594.1 447.485C1616.76 460.579 1639.84 476.802 1663.1 495.955V493.262H1663.12Z" fill="url(#paint14_linear_99_540)" style="mix-blend-mode:multiply"/>
</g>
<g opacity="0.1">
<path d="M1663.12 341.639C1631.58 340.2 1601.31 340.985 1571.84 341.776H1571.55C1517.52 343.235 1450.13 340.673 1408.24 307.691C1388.21 291.898 1369.9 269.642 1352.28 239.645C1336.85 213.363 1322.24 182.033 1306.31 141.048C1283.55 82.4941 1265.22 24.3204 1249.04 -27.0101C1244.48 -41.4632 1240.08 -55.4301 1235.78 -68.78C1218.4 -122.697 1203.52 -164.51 1192.75 -189.708C1184.02 -210.107 1178.25 -219.961 1178.19 -220.06L1176.22 -219.113C1176.28 -219.013 1182 -209.247 1190.67 -188.979C1201.42 -163.831 1216.27 -122.074 1233.63 -68.2129C1237.93 -54.8692 1242.33 -40.9085 1246.89 -26.4554C1263.07 24.9 1281.43 83.1048 1304.2 141.715C1320.17 182.799 1334.82 214.217 1350.31 240.593C1368.06 270.808 1386.53 293.251 1406.78 309.212C1449.26 342.655 1517.18 345.26 1571.62 343.802H1571.91C1601.37 343.004 1631.62 342.219 1663.12 343.659V341.639H1663.12Z" fill="url(#paint15_linear_99_540)" style="mix-blend-mode:multiply"/>
</g>
<g opacity="0.1">
<path d="M1663.12 281.559C1651.56 281.82 1640.21 281.745 1629.39 281.072C1594.83 278.928 1563.5 270.303 1538.77 256.124C1513.98 241.889 1490.73 219.951 1469.67 190.908C1451 165.143 1433.62 134.049 1414.96 93.058C1388.36 34.5603 1367.4 -23.9624 1348.92 -75.5858C1343.72 -90.1012 1338.7 -104.124 1333.78 -117.512C1313.92 -171.572 1296.75 -213.304 1284.11 -238.203C1273.89 -258.352 1266.98 -267.882 1266.91 -267.975L1265.05 -266.866C1265.12 -266.773 1271.94 -257.349 1282.09 -237.362C1294.68 -212.531 1311.83 -170.868 1331.67 -116.87C1336.59 -103.482 1341.6 -89.4717 1346.8 -74.9564C1365.3 -23.2956 1386.26 35.2583 1412.91 93.8371C1431.62 134.946 1449.06 166.146 1467.81 192.023C1489.04 221.309 1512.52 243.453 1537.58 257.838C1562.62 272.197 1594.31 280.929 1629.24 283.098C1640.12 283.771 1651.52 283.846 1663.12 283.584V281.571V281.559Z" fill="url(#paint16_linear_99_540)" style="mix-blend-mode:multiply"/>
</g>
<g opacity="0.1">
<path d="M1663.12 189.923C1638.22 177.19 1614.97 158.86 1593.87 135.121C1571.6 110.035 1551.13 79.2968 1529.45 38.3807C1498.59 -19.9114 1474.75 -78.7208 1453.71 -130.612C1447.74 -145.346 1442.1 -159.263 1436.5 -172.687C1413.91 -226.847 1394.21 -268.418 1379.55 -292.905C1367.67 -312.737 1359.51 -321.855 1359.43 -321.942L1357.71 -320.671C1357.79 -320.583 1365.83 -311.59 1377.59 -291.945C1392.2 -267.533 1411.86 -226.05 1434.41 -171.977C1440.01 -158.558 1445.65 -144.648 1451.62 -129.92C1472.67 -77.9854 1496.52 -19.1261 1527.44 39.2471C1549.19 80.3127 1569.75 111.176 1592.14 136.386C1613.72 160.674 1637.56 179.377 1663.12 192.26V189.929V189.923Z" fill="url(#paint17_linear_99_540)" style="mix-blend-mode:multiply"/>
</g>
<g opacity="0.1">
<path d="M1543.82 -229.64C1543.48 -229.459 1508.74 -210.892 1450.63 -179.213C1443.11 -175.112 1435.23 -170.793 1427.02 -166.287C1372.02 -136.122 1303.57 -98.5774 1222.91 -61.8059C1117.38 -13.7288 1021.73 15.0152 930.454 26.0218C839.878 36.9223 735.222 31.712 601.106 9.6117C575.528 5.39234 549.714 0.892518 524.746 -3.46396C435.454 -19.0389 351.117 -33.7474 270.026 -37.6677C178.316 -42.0678 88.3315 -30.3757 16.6646 -4.73537C-29.2811 11.7308 -66.7693 30.3097 -96.0493 47.4053V49.7986C-66.7194 32.5845 -28.9508 13.7812 17.481 -2.8594C88.855 -28.4 178.503 -40.0422 269.901 -35.6545C350.842 -31.7468 435.105 -17.0445 524.323 -1.48829C549.29 2.86819 575.111 7.36805 600.701 11.5874C735.054 33.7251 839.928 38.9416 930.747 28.0099C936.574 27.3056 942.414 26.5328 948.279 25.6852C1034.51 13.2203 1124.89 -14.9005 1223.9 -60.011C1304.65 -96.8198 1373.14 -134.383 1428.17 -164.573C1436.39 -169.079 1444.26 -173.398 1451.77 -177.493C1509.88 -209.166 1544.61 -227.726 1544.95 -227.913L1543.82 -229.646V-229.64Z" fill="url(#paint18_linear_99_540)" style="mix-blend-mode:multiply"/>
</g>
<g opacity="0.1">
<path d="M1576.25 -160.054C1575.89 -159.874 1539.93 -141.357 1479.76 -109.765C1472 -105.689 1463.86 -101.388 1455.38 -96.9071C1398.5 -66.8542 1327.72 -29.447 1244.54 7.0502C1135.84 54.7222 1037.45 83.0612 943.735 93.6688C850.791 104.164 743.505 98.4803 606.099 75.7879C579.897 71.4564 553.453 66.8443 527.875 62.3757C436.395 46.4081 349.995 31.3256 266.935 27.0502C173.018 22.2449 80.9522 33.5381 7.69595 58.8481C-33.4569 73.0892 -68.0034 89.0256 -96.0557 104.177V106.526C-67.9037 91.2444 -33.1079 75.121 8.4937 60.7241C81.4695 35.52 173.205 24.2705 266.81 29.057C349.72 33.3262 436.052 48.3963 527.457 64.3514C553.035 68.8138 579.486 73.432 605.706 77.7636C743.343 100.493 850.847 106.177 944.016 95.6632C952.093 94.747 960.208 93.7 968.36 92.522C1055.01 79.9948 1145.97 52.5159 1245.52 8.85763C1328.78 -27.6708 1399.6 -65.0966 1456.51 -95.1682C1464.99 -99.6493 1473.12 -103.943 1480.89 -108.02C1541.04 -139.606 1577 -158.122 1577.35 -158.303L1576.25 -160.054Z" fill="url(#paint19_linear_99_540)" style="mix-blend-mode:multiply"/>
</g>
<g opacity="0.1">
<path d="M1610.79 -88.8423C1610.42 -88.6615 1573.11 -70.1886 1510.71 -38.6898C1502.68 -34.6387 1494.27 -30.3695 1485.51 -25.9132C1426.58 4.02121 1353.23 41.2788 1267.31 77.4956C1155.16 124.738 1053.81 152.671 957.441 162.824C861.953 172.877 751.82 166.688 610.848 143.354C583.961 138.904 556.831 134.161 530.587 129.574C436.763 113.183 348.138 97.7012 262.953 93.0456C166.674 87.8103 72.358 98.6672 -2.60592 123.634C-38.7105 135.676 -69.8229 149.013 -96.0615 162.064V164.357C-69.6983 151.188 -38.3179 137.701 -1.8331 125.529C72.8566 100.662 166.842 89.8421 262.822 95.0586C347.857 99.708 436.408 115.177 530.163 131.556C556.408 136.137 583.55 140.88 610.443 145.336C751.639 168.707 861.978 174.896 957.696 164.825C968.341 163.703 979.03 162.363 989.8 160.805C1076.8 148.228 1168.26 121.434 1268.24 79.3155C1354.24 43.0738 1427.63 5.79746 1486.6 -24.1557C1495.36 -28.6057 1503.77 -32.8749 1511.79 -36.926C1574.18 -68.4186 1611.49 -86.8853 1611.85 -87.066L1610.78 -88.8298L1610.79 -88.8423Z" fill="url(#paint20_linear_99_540)" style="mix-blend-mode:multiply"/>
</g>
<g opacity="0.1">
<path d="M1648.36 -21.0955C1647.97 -20.9148 1609.09 -2.41063 1544.11 29.1193C1535.77 33.1704 1527.04 37.4334 1517.92 41.8834C1456.63 71.8116 1380.36 109.063 1291.29 145.111C1175.18 192.079 1070.43 219.658 971.052 229.43C872.654 239.066 759.267 232.347 614.207 208.284C586.547 203.697 558.626 198.81 531.627 194.092C435.092 177.215 343.918 161.272 256.302 156.211C157.312 150.521 60.4536 160.986 -16.4236 185.685C-46.2646 195.289 -72.7962 205.766 -96.0557 216.28V218.536C-72.6341 207.91 -45.8657 197.296 -15.6757 187.586C60.9273 162.986 157.474 152.553 256.159 158.225C343.631 163.279 434.743 179.209 531.203 196.074C558.208 200.792 586.13 205.678 613.802 210.272C759.08 234.366 872.679 241.091 971.295 231.437C984.72 230.116 998.232 228.477 1011.86 226.501C1099.4 213.843 1191.56 187.667 1292.2 146.956C1381.35 110.877 1457.66 73.6066 1518.99 43.6596C1528.1 39.2097 1536.83 34.9467 1545.17 30.9018C1610.14 -0.621924 1649.02 -19.1198 1649.4 -19.3068L1648.36 -21.0893V-21.0955Z" fill="url(#paint21_linear_99_540)" style="mix-blend-mode:multiply"/>
</g>
<g opacity="0.1">
<path d="M1580.92 89.4058C1572.2 93.4818 1563.07 97.7697 1553.56 102.245C1489.44 132.403 1409.65 169.935 1316.8 206.102C1195.99 253.139 1087.19 280.586 984.19 290.028C882.321 299.321 765.026 292.048 615.067 267.124C586.472 262.369 557.61 257.321 529.701 252.434C429.932 234.977 335.691 218.486 245.171 213.008C142.953 206.85 43.0838 217.003 -36.0247 241.608C-57.7323 248.371 -77.7447 255.594 -96.0557 262.973V265.186C-77.5515 257.707 -57.3147 250.378 -35.3017 243.516C43.5263 218.997 143.083 208.876 245.021 215.021C335.398 220.493 429.571 236.972 529.271 254.416C557.186 259.302 586.055 264.351 614.662 269.112C764.833 294.067 882.321 301.353 984.408 292.041C1000.76 290.546 1017.25 288.595 1033.92 286.183C1122.47 273.382 1215.83 247.617 1317.68 207.959C1410.6 171.761 1490.44 134.211 1554.59 104.04C1564.1 99.5647 1573.23 95.2768 1581.94 91.2008C1616.71 74.9528 1644.33 62.1388 1663.12 53.4508V51.1884C1644.32 59.8765 1616.32 72.8649 1580.92 89.412V89.4058Z" fill="url(#paint22_linear_99_540)" style="mix-blend-mode:multiply"/>
</g>
<g opacity="0.1">
<path d="M1622.39 138.848C1613.19 143.005 1603.56 147.38 1593.53 151.942C1525.95 182.668 1441.84 220.904 1344.34 257.595C1217.79 305.204 1104.04 332.833 996.605 342.063C890.504 351.138 768.441 343.272 612.462 317.302C582.714 312.347 552.686 307.087 523.656 302.007C419.91 283.84 321.924 266.688 227.851 260.767C121.687 254.117 18.1852 264.101 -63.5784 288.875C-74.884 292.303 -85.6662 295.931 -96.0557 299.67V301.839C-85.4605 298.006 -74.4353 294.291 -62.8741 290.783C18.6277 266.09 121.818 256.143 227.689 262.774C321.624 268.682 419.549 285.828 523.226 303.983C552.269 309.069 582.297 314.323 612.057 319.284C768.242 345.285 890.504 353.163 996.817 344.064C1016.17 342.4 1035.72 340.144 1055.51 337.283C1145.85 324.22 1241.22 298.567 1345.2 259.452C1442.77 222.737 1526.92 184.476 1594.53 153.737C1604.57 149.175 1614.19 144.8 1623.4 140.643C1637.84 134.117 1651.11 128.134 1663.12 122.737V120.487C1650.85 126.009 1637.25 132.136 1622.4 138.842L1622.39 138.848Z" fill="url(#paint23_linear_99_540)" style="mix-blend-mode:multiply"/>
</g>
<g opacity="0.1">
<path d="M1639.36 188.745C1567.47 220.493 1477.99 260.007 1374.73 297.744C1241.02 346.582 1121.15 374.79 1008.25 383.958C896.936 392.97 768.971 384.475 605.532 357.227C574.351 352.023 542.883 346.513 512.45 341.178C403.793 322.144 301.164 304.164 202.703 297.782C93.8786 290.764 -11.911 300.25 -96.0615 324.444V326.551C-12.073 302.294 93.7041 292.771 202.541 299.788C300.865 306.158 403.432 324.126 512.02 343.154C542.459 348.489 573.927 353.998 605.12 359.202C768.76 386.488 896.924 394.989 1008.45 385.958C1030.82 384.138 1053.45 381.577 1076.41 378.255C1169.58 364.78 1268.12 338.841 1375.55 299.601C1478.88 261.839 1568.4 222.313 1640.33 190.546C1648.18 187.075 1655.72 183.753 1663.1 180.506V178.262C1655.42 181.646 1647.55 185.111 1639.35 188.732L1639.36 188.745Z" fill="url(#paint24_linear_99_540)" style="mix-blend-mode:multiply"/>
</g>
<g opacity="0.1">
<path d="M1408.99 325.784C1266.41 376.653 1138.95 405.915 1019.27 415.22C901.51 424.344 766.248 415.176 593.596 386.357C560.639 380.854 527.376 375.027 495.211 369.386C380.484 349.28 272.12 330.284 168.256 323.416C74.1339 317.214 -17.5766 322.612 -96.0557 338.604V340.667C-17.6888 324.65 73.9905 319.234 168.094 325.429C271.827 332.291 380.128 351.275 494.787 371.368C526.953 377.008 560.221 382.836 593.191 388.339C766.048 417.189 901.498 426.37 1019.47 417.227C1044.83 415.251 1070.55 412.384 1096.69 408.601C1194.06 394.522 1297.25 367.809 1409.8 327.654C1506.11 293.275 1591.55 257.364 1663.12 226.626V224.394C1591.39 255.208 1505.65 291.275 1408.99 325.778V325.784Z" fill="url(#paint25_linear_99_540)" style="mix-blend-mode:multiply"/>
</g>
<g opacity="0.1">
<path d="M1636.57 270.215C1586.64 290.533 1520.14 317.077 1448.5 342.194C1374.47 368.146 1307.55 388.034 1243.96 402.998C1171.62 420.012 1099.63 431.299 1029.99 436.547C904.34 445.989 760.121 436.073 576.114 405.341C540.976 399.47 505.519 393.25 471.228 387.242C349.041 365.815 233.629 345.578 123.14 338.18C46.6425 333.076 -28.1157 335.164 -96.0557 343.933V345.965C-28.1967 337.177 46.5241 335.089 122.978 340.187C233.336 347.585 348.68 367.809 470.804 389.218C505.102 395.232 540.564 401.452 575.715 407.323C759.915 438.093 904.327 448.015 1030.18 438.56C1059.71 436.335 1089.66 433.02 1119.88 428.651C1161.06 422.699 1202.74 414.777 1244.53 404.949C1308.21 389.96 1375.2 370.047 1449.31 344.076C1521 318.941 1587.53 292.384 1637.49 272.054C1646.2 268.508 1654.71 265.024 1663.12 261.565V259.352C1654.42 262.93 1645.61 266.538 1636.57 270.215H1636.57Z" fill="url(#paint26_linear_99_540)" style="mix-blend-mode:multiply"/>
</g>
<g opacity="0.1">
<path d="M1494.98 348.819C1414.2 376.753 1341.36 398.13 1272.3 414.173C1193.95 432.359 1116.12 444.4 1040.99 449.947C905.717 459.906 750.585 449.149 552.78 416.092C514.961 409.766 476.806 403.073 439.904 396.603C308.667 373.587 184.71 351.842 66.2124 343.846C8.58094 339.969 -45.7723 339.533 -96.0557 342.412V344.431C-45.8346 341.546 8.46254 341.982 66.0504 345.852C184.417 353.842 308.312 375.569 439.48 398.579C476.382 405.055 514.55 411.748 552.381 418.068C750.386 451.156 905.705 461.926 1041.17 451.954C1074 449.529 1107.34 445.871 1141.01 441.003C1184.54 434.708 1228.62 426.394 1272.86 416.123C1342.01 400.056 1414.93 378.66 1495.79 350.695C1556.83 329.58 1614.6 307.492 1663.12 288.346V286.146C1614.44 305.366 1556.37 327.579 1494.99 348.813L1494.98 348.819Z" fill="url(#paint27_linear_99_540)" style="mix-blend-mode:multiply"/>
</g>
<g opacity="0.1">
<path d="M1550.53 349.224C1461.38 379.695 1381.22 402.973 1305.48 420.393C1219.83 440.081 1134.92 453.082 1053.09 459.04C906.26 469.691 737.996 457.962 523.556 422.113C482.528 415.251 441.138 407.99 401.114 400.966C258.989 376.03 124.748 352.478 -3.36006 343.802C-35.2764 341.646 -66.1832 340.505 -96.0615 340.281V342.294C-66.2392 342.518 -35.3886 343.659 -3.52833 345.809C124.443 354.472 258.627 378.018 400.684 402.942C440.715 409.966 482.104 417.226 523.145 424.088C737.784 459.969 906.229 471.711 1053.26 461.041C1089.77 458.386 1126.89 454.328 1164.42 448.9C1211.13 442.144 1258.47 433.269 1306.02 422.343C1381.85 404.905 1462.08 381.602 1551.31 351.106C1590.13 337.838 1627.82 324.195 1663.11 310.994V308.813C1627.59 322.101 1589.63 335.849 1550.52 349.224H1550.53Z" fill="url(#paint28_linear_99_540)" style="mix-blend-mode:multiply"/>
</g>
<g opacity="0.1">
<path d="M1617.58 349.131C1518.15 382.655 1429.04 408.227 1345.16 427.292C1250.67 448.756 1157.22 462.898 1067.41 469.33C906.796 480.791 722.939 467.89 488.798 428.732C443.943 421.228 398.714 413.288 354.968 405.609C199.967 378.405 53.5547 352.708 -85.8715 343.235C-89.2993 343.004 -92.6524 342.848 -96.0615 342.637V344.656C-92.7085 344.862 -89.4115 345.017 -86.0397 345.248C53.2555 354.715 199.606 380.399 354.545 407.591C398.296 415.27 443.532 423.21 488.399 430.72C722.733 469.909 906.777 482.817 1067.59 471.343C1108.63 468.407 1150.41 463.858 1192.72 457.744C1243.12 450.458 1294.26 440.935 1345.7 429.249C1429.67 410.159 1518.85 384.575 1618.36 351.019C1633.45 345.933 1648.37 340.786 1663.12 335.631V333.469C1648.12 338.716 1632.94 343.952 1617.58 349.131H1617.58Z" fill="url(#paint29_linear_99_540)" style="mix-blend-mode:multiply"/>
</g>
<g opacity="0.1">
<path d="M1393.26 442.91C1288.21 466.313 1184.64 481.676 1085.41 488.563C908.64 500.785 706.547 486.438 449.421 443.409C400.091 435.145 350.35 426.413 302.248 417.968C163.445 393.593 30.9367 370.334 -96.0557 356.921V358.947C30.7809 372.359 163.164 395.594 301.824 419.944C349.926 428.395 399.673 437.127 449.016 445.391C706.341 488.457 908.609 502.817 1085.57 490.576C1132.85 487.298 1181.09 482.1 1230.02 475.02C1283.93 467.223 1338.67 457.158 1393.79 444.874C1477.25 426.264 1565.7 401.901 1663.12 370.695V368.557C1565.48 399.863 1476.86 424.282 1393.26 442.923V442.91Z" fill="url(#paint30_linear_99_540)" style="mix-blend-mode:multiply"/>
</g>
<g opacity="0.1">
<path d="M1451.85 477.856C1334.37 503.11 1218.95 519.557 1108.76 526.737C913.384 539.426 690.38 523.216 406.96 475.718C352.5 466.588 297.611 456.94 244.523 447.61C126.992 426.955 13.5548 407.03 -96.0615 392.153V394.191C13.4115 409.056 126.705 428.962 244.099 449.592C297.187 458.922 352.083 468.569 406.554 477.7C690.168 525.229 913.352 541.452 1108.92 528.75C1165.65 525.054 1223.76 518.903 1282.82 510.364C1338.61 502.299 1395.25 492.103 1452.36 479.819C1519.02 465.484 1588.73 447.915 1663.11 426.706V424.593C1588.53 445.877 1518.64 463.49 1451.84 477.862L1451.85 477.856Z" fill="url(#paint31_linear_99_540)" style="mix-blend-mode:multiply"/>
</g>
<g opacity="0.1">
<path d="M1523 545.029C1391.13 571.623 1262.06 588.694 1139.37 595.768C922.969 608.195 676.482 589.51 363.662 536.964C303.457 526.849 242.472 516.042 183.495 505.596C112.582 493.032 39.2571 480.043 -32.1107 468.37C-54.105 464.774 -75.3515 461.408 -96.0557 458.217V460.262C-75.4761 463.434 -54.3668 466.774 -32.5096 470.352C38.8457 482.025 112.164 495.014 183.065 507.572C242.042 518.018 303.033 528.825 363.251 538.94C676.257 591.517 922.925 610.214 1139.51 597.774C1211.57 593.617 1285.82 586.02 1361.56 575.07C1414.88 567.36 1468.95 557.986 1523.48 546.992C1568.54 537.899 1614.96 527.535 1663.12 515.805V513.717C1614.78 525.497 1568.21 535.905 1523 545.023V545.029Z" fill="url(#paint32_linear_99_540)" style="mix-blend-mode:multiply"/>
</g>
</g>
</g>
<defs>
<linearGradient id="paint0_linear_99_540" x1="-96.0557" y1="-146.156" x2="-95.4324" y2="756.808" gradientUnits="userSpaceOnUse">
<stop stop-color="white"/>
<stop offset="0.09" stop-color="#F9FBFF"/>
<stop offset="0.21" stop-color="#E8F3FF"/>
<stop offset="0.35" stop-color="#CDE4FF"/>
<stop offset="0.5" stop-color="#A7D0FF"/>
<stop offset="0.65" stop-color="#79B7FF"/>
<stop offset="0.79" stop-color="#B1D5FF"/>
<stop offset="0.93" stop-color="#E9F3FF"/>
<stop offset="1" stop-color="white"/>
</linearGradient>
<linearGradient id="paint1_linear_99_540" x1="-96.0557" y1="133.832" x2="-85.1089" y2="1213.41" gradientUnits="userSpaceOnUse">
<stop stop-color="white"/>
<stop offset="0.09" stop-color="#F9FBFF"/>
<stop offset="0.21" stop-color="#E8F3FF"/>
<stop offset="0.35" stop-color="#CDE4FF"/>
<stop offset="0.5" stop-color="#A7D0FF"/>
<stop offset="0.65" stop-color="#79B7FF"/>
<stop offset="0.79" stop-color="#B1D5FF"/>
<stop offset="0.93" stop-color="#E9F3FF"/>
<stop offset="1" stop-color="white"/>
</linearGradient>
<linearGradient id="paint2_linear_99_540" x1="-96.0615" y1="139.783" x2="-87.0581" y2="1326.7" gradientUnits="userSpaceOnUse">
<stop stop-color="white"/>
<stop offset="0.09" stop-color="#F9FBFF"/>
<stop offset="0.21" stop-color="#E8F3FF"/>
<stop offset="0.35" stop-color="#CDE4FF"/>
<stop offset="0.5" stop-color="#A7D0FF"/>
<stop offset="0.65" stop-color="#79B7FF"/>
<stop offset="0.79" stop-color="#B1D5FF"/>
<stop offset="0.93" stop-color="#E9F3FF"/>
<stop offset="1" stop-color="white"/>
</linearGradient>
<linearGradient id="paint3_linear_99_540" x1="-96.0615" y1="135.325" x2="-88.9992" y2="1354.24" gradientUnits="userSpaceOnUse">
<stop stop-color="white"/>
<stop offset="0.09" stop-color="#F9FBFF"/>
<stop offset="0.21" stop-color="#E8F3FF"/>
<stop offset="0.35" stop-color="#CDE4FF"/>
<stop offset="0.5" stop-color="#A7D0FF"/>
<stop offset="0.65" stop-color="#79B7FF"/>
<stop offset="0.79" stop-color="#B1D5FF"/>
<stop offset="0.93" stop-color="#E9F3FF"/>
<stop offset="1" stop-color="white"/>
</linearGradient>
<linearGradient id="paint4_linear_99_540" x1="-96.043" y1="133.754" x2="-90.4232" y2="1360.23" gradientUnits="userSpaceOnUse">
<stop stop-color="white"/>
<stop offset="0.09" stop-color="#F9FBFF"/>
<stop offset="0.21" stop-color="#E8F3FF"/>
<stop offset="0.35" stop-color="#CDE4FF"/>
<stop offset="0.5" stop-color="#A7D0FF"/>
<stop offset="0.65" stop-color="#79B7FF"/>
<stop offset="0.79" stop-color="#B1D5FF"/>
<stop offset="0.93" stop-color="#E9F3FF"/>
<stop offset="1" stop-color="white"/>
</linearGradient>
<linearGradient id="paint5_linear_99_540" x1="-96.0493" y1="149.011" x2="-91.1422" y2="1416.92" gradientUnits="userSpaceOnUse">
<stop stop-color="white"/>
<stop offset="0.09" stop-color="#F9FBFF"/>
<stop offset="0.21" stop-color="#E8F3FF"/>
<stop offset="0.35" stop-color="#CDE4FF"/>
<stop offset="0.5" stop-color="#A7D0FF"/>
<stop offset="0.65" stop-color="#79B7FF"/>
<stop offset="0.79" stop-color="#B1D5FF"/>
<stop offset="0.93" stop-color="#E9F3FF"/>
<stop offset="1" stop-color="white"/>
</linearGradient>
<linearGradient id="paint6_linear_99_540" x1="-96.0557" y1="233.799" x2="-89.8474" y2="1788.4" gradientUnits="userSpaceOnUse">
<stop stop-color="white"/>
<stop offset="0.09" stop-color="#F9FBFF"/>
<stop offset="0.21" stop-color="#E8F3FF"/>
<stop offset="0.35" stop-color="#CDE4FF"/>
<stop offset="0.5" stop-color="#A7D0FF"/>
<stop offset="0.65" stop-color="#79B7FF"/>
<stop offset="0.79" stop-color="#B1D5FF"/>
<stop offset="0.93" stop-color="#E9F3FF"/>
<stop offset="1" stop-color="white"/>
</linearGradient>
<linearGradient id="paint7_linear_99_540" x1="26.7676" y1="388.952" x2="38.8766" y2="2489.04" gradientUnits="userSpaceOnUse">
<stop stop-color="white"/>
<stop offset="0.09" stop-color="#F9FBFF"/>
<stop offset="0.21" stop-color="#E8F3FF"/>
<stop offset="0.35" stop-color="#CDE4FF"/>
<stop offset="0.5" stop-color="#A7D0FF"/>
<stop offset="0.65" stop-color="#79B7FF"/>
<stop offset="0.79" stop-color="#B1D5FF"/>
<stop offset="0.93" stop-color="#E9F3FF"/>
<stop offset="1" stop-color="white"/>
</linearGradient>
<linearGradient id="paint8_linear_99_540" x1="284.149" y1="421.851" x2="303.239" y2="2592.53" gradientUnits="userSpaceOnUse">
<stop stop-color="white"/>
<stop offset="0.09" stop-color="#F9FBFF"/>
<stop offset="0.21" stop-color="#E8F3FF"/>
<stop offset="0.35" stop-color="#CDE4FF"/>
<stop offset="0.5" stop-color="#A7D0FF"/>
<stop offset="0.65" stop-color="#79B7FF"/>
<stop offset="0.79" stop-color="#B1D5FF"/>
<stop offset="0.93" stop-color="#E9F3FF"/>
<stop offset="1" stop-color="white"/>
</linearGradient>
<linearGradient id="paint9_linear_99_540" x1="539.917" y1="450.676" x2="577.461" y2="2685.53" gradientUnits="userSpaceOnUse">
<stop stop-color="white"/>
<stop offset="0.09" stop-color="#F9FBFF"/>
<stop offset="0.21" stop-color="#E8F3FF"/>
<stop offset="0.35" stop-color="#CDE4FF"/>
<stop offset="0.5" stop-color="#A7D0FF"/>
<stop offset="0.65" stop-color="#79B7FF"/>
<stop offset="0.79" stop-color="#B1D5FF"/>
<stop offset="0.93" stop-color="#E9F3FF"/>
<stop offset="1" stop-color="white"/>
</linearGradient>
<linearGradient id="paint10_linear_99_540" x1="760.346" y1="471.12" x2="865.305" y2="2754.6" gradientUnits="userSpaceOnUse">
<stop stop-color="white"/>
<stop offset="0.09" stop-color="#F9FBFF"/>
<stop offset="0.21" stop-color="#E8F3FF"/>
<stop offset="0.35" stop-color="#CDE4FF"/>
<stop offset="0.5" stop-color="#A7D0FF"/>
<stop offset="0.65" stop-color="#79B7FF"/>
<stop offset="0.79" stop-color="#B1D5FF"/>
<stop offset="0.93" stop-color="#E9F3FF"/>
<stop offset="1" stop-color="white"/>
</linearGradient>
<linearGradient id="paint11_linear_99_540" x1="842.608" y1="479.669" x2="876.993" y2="2803.07" gradientUnits="userSpaceOnUse">
<stop stop-color="white"/>
<stop offset="0.09" stop-color="#F9FBFF"/>
<stop offset="0.21" stop-color="#E8F3FF"/>
<stop offset="0.35" stop-color="#CDE4FF"/>
<stop offset="0.5" stop-color="#A7D0FF"/>
<stop offset="0.65" stop-color="#79B7FF"/>
<stop offset="0.79" stop-color="#B1D5FF"/>
<stop offset="0.93" stop-color="#E9F3FF"/>
<stop offset="1" stop-color="white"/>
</linearGradient>
<linearGradient id="paint12_linear_99_540" x1="924.577" y1="473.464" x2="943.186" y2="2810.74" gradientUnits="userSpaceOnUse">
<stop stop-color="white"/>
<stop offset="0.09" stop-color="#F9FBFF"/>
<stop offset="0.21" stop-color="#E8F3FF"/>
<stop offset="0.35" stop-color="#CDE4FF"/>
<stop offset="0.5" stop-color="#A7D0FF"/>
<stop offset="0.65" stop-color="#79B7FF"/>
<stop offset="0.79" stop-color="#B1D5FF"/>
<stop offset="0.93" stop-color="#E9F3FF"/>
<stop offset="1" stop-color="white"/>
</linearGradient>
<linearGradient id="paint13_linear_99_540" x1="1006.93" y1="450.272" x2="1019.12" y2="2774.22" gradientUnits="userSpaceOnUse">
<stop stop-color="white"/>
<stop offset="0.09" stop-color="#F9FBFF"/>
<stop offset="0.21" stop-color="#E8F3FF"/>
<stop offset="0.35" stop-color="#CDE4FF"/>
<stop offset="0.5" stop-color="#A7D0FF"/>
<stop offset="0.65" stop-color="#79B7FF"/>
<stop offset="0.79" stop-color="#B1D5FF"/>
<stop offset="0.93" stop-color="#E9F3FF"/>
<stop offset="1" stop-color="white"/>
</linearGradient>
<linearGradient id="paint14_linear_99_540" x1="1090.48" y1="226.249" x2="1096.29" y2="1799.56" gradientUnits="userSpaceOnUse">
<stop stop-color="white"/>
<stop offset="0.09" stop-color="#F9FBFF"/>
<stop offset="0.21" stop-color="#E8F3FF"/>
<stop offset="0.35" stop-color="#CDE4FF"/>
<stop offset="0.5" stop-color="#A7D0FF"/>
<stop offset="0.65" stop-color="#79B7FF"/>
<stop offset="0.79" stop-color="#B1D5FF"/>
<stop offset="0.93" stop-color="#E9F3FF"/>
<stop offset="1" stop-color="white"/>
</linearGradient>
<linearGradient id="paint15_linear_99_540" x1="1176.22" y1="119.143" x2="1180.98" y2="1431.45" gradientUnits="userSpaceOnUse">
<stop stop-color="white"/>
<stop offset="0.09" stop-color="#F9FBFF"/>
<stop offset="0.21" stop-color="#E8F3FF"/>
<stop offset="0.35" stop-color="#CDE4FF"/>
<stop offset="0.5" stop-color="#A7D0FF"/>
<stop offset="0.65" stop-color="#79B7FF"/>
<stop offset="0.79" stop-color="#B1D5FF"/>
<stop offset="0.93" stop-color="#E9F3FF"/>
<stop offset="1" stop-color="white"/>
</linearGradient>
<linearGradient id="paint16_linear_99_540" x1="1265.05" y1="63.7317" x2="1270.61" y2="1347.04" gradientUnits="userSpaceOnUse">
<stop stop-color="white"/>
<stop offset="0.09" stop-color="#F9FBFF"/>
<stop offset="0.21" stop-color="#E8F3FF"/>
<stop offset="0.35" stop-color="#CDE4FF"/>
<stop offset="0.5" stop-color="#A7D0FF"/>
<stop offset="0.65" stop-color="#79B7FF"/>
<stop offset="0.79" stop-color="#B1D5FF"/>
<stop offset="0.93" stop-color="#E9F3FF"/>
<stop offset="1" stop-color="white"/>
</linearGradient>
<linearGradient id="paint17_linear_99_540" x1="1357.71" y1="-12.7803" x2="1364.01" y2="1183.29" gradientUnits="userSpaceOnUse">
<stop stop-color="white"/>
<stop offset="0.09" stop-color="#F9FBFF"/>
<stop offset="0.21" stop-color="#E8F3FF"/>
<stop offset="0.35" stop-color="#CDE4FF"/>
<stop offset="0.5" stop-color="#A7D0FF"/>
<stop offset="0.65" stop-color="#79B7FF"/>
<stop offset="0.79" stop-color="#B1D5FF"/>
<stop offset="0.93" stop-color="#E9F3FF"/>
<stop offset="1" stop-color="white"/>
</linearGradient>
<linearGradient id="paint18_linear_99_540" x1="-96.0493" y1="-61.631" x2="-95.7031" y2="588.395" gradientUnits="userSpaceOnUse">
<stop stop-color="white"/>
<stop offset="0.09" stop-color="#F9FBFF"/>
<stop offset="0.21" stop-color="#E8F3FF"/>
<stop offset="0.35" stop-color="#CDE4FF"/>
<stop offset="0.5" stop-color="#A7D0FF"/>
<stop offset="0.65" stop-color="#79B7FF"/>
<stop offset="0.79" stop-color="#B1D5FF"/>
<stop offset="0.93" stop-color="#E9F3FF"/>
<stop offset="1" stop-color="white"/>
</linearGradient>
<linearGradient id="paint19_linear_99_540" x1="-96.0557" y1="0.226241" x2="-95.7467" y2="620.329" gradientUnits="userSpaceOnUse">
<stop stop-color="white"/>
<stop offset="0.09" stop-color="#F9FBFF"/>
<stop offset="0.21" stop-color="#E8F3FF"/>
<stop offset="0.35" stop-color="#CDE4FF"/>
<stop offset="0.5" stop-color="#A7D0FF"/>
<stop offset="0.65" stop-color="#79B7FF"/>
<stop offset="0.79" stop-color="#B1D5FF"/>
<stop offset="0.93" stop-color="#E9F3FF"/>
<stop offset="1" stop-color="white"/>
</linearGradient>
<linearGradient id="paint20_linear_99_540" x1="-96.0615" y1="66.4708" x2="-95.7772" y2="667.355" gradientUnits="userSpaceOnUse">
<stop stop-color="white"/>
<stop offset="0.09" stop-color="#F9FBFF"/>
<stop offset="0.21" stop-color="#E8F3FF"/>
<stop offset="0.35" stop-color="#CDE4FF"/>
<stop offset="0.5" stop-color="#A7D0FF"/>
<stop offset="0.65" stop-color="#79B7FF"/>
<stop offset="0.79" stop-color="#B1D5FF"/>
<stop offset="0.93" stop-color="#E9F3FF"/>
<stop offset="1" stop-color="white"/>
</linearGradient>
<linearGradient id="paint21_linear_99_540" x1="-96.0557" y1="133.29" x2="-95.7808" y2="730.584" gradientUnits="userSpaceOnUse">
<stop stop-color="white"/>
<stop offset="0.09" stop-color="#F9FBFF"/>
<stop offset="0.21" stop-color="#E8F3FF"/>
<stop offset="0.35" stop-color="#CDE4FF"/>
<stop offset="0.5" stop-color="#A7D0FF"/>
<stop offset="0.65" stop-color="#79B7FF"/>
<stop offset="0.79" stop-color="#B1D5FF"/>
<stop offset="0.93" stop-color="#E9F3FF"/>
<stop offset="1" stop-color="white"/>
</linearGradient>
<linearGradient id="paint22_linear_99_540" x1="-96.0557" y1="198.342" x2="-95.8079" y2="767.658" gradientUnits="userSpaceOnUse">
<stop stop-color="white"/>
<stop offset="0.09" stop-color="#F9FBFF"/>
<stop offset="0.21" stop-color="#E8F3FF"/>
<stop offset="0.35" stop-color="#CDE4FF"/>
<stop offset="0.5" stop-color="#A7D0FF"/>
<stop offset="0.65" stop-color="#79B7FF"/>
<stop offset="0.79" stop-color="#B1D5FF"/>
<stop offset="0.93" stop-color="#E9F3FF"/>
<stop offset="1" stop-color="white"/>
</linearGradient>
<linearGradient id="paint23_linear_99_540" x1="-96.0557" y1="257.098" x2="-95.8421" y2="785.626" gradientUnits="userSpaceOnUse">
<stop stop-color="white"/>
<stop offset="0.09" stop-color="#F9FBFF"/>
<stop offset="0.21" stop-color="#E8F3FF"/>
<stop offset="0.35" stop-color="#CDE4FF"/>
<stop offset="0.5" stop-color="#A7D0FF"/>
<stop offset="0.65" stop-color="#79B7FF"/>
<stop offset="0.79" stop-color="#B1D5FF"/>
<stop offset="0.93" stop-color="#E9F3FF"/>
<stop offset="1" stop-color="white"/>
</linearGradient>
<linearGradient id="paint24_linear_99_540" x1="-96.0615" y1="305.224" x2="-95.8771" y2="796.42" gradientUnits="userSpaceOnUse">
<stop stop-color="white"/>
<stop offset="0.09" stop-color="#F9FBFF"/>
<stop offset="0.21" stop-color="#E8F3FF"/>
<stop offset="0.35" stop-color="#CDE4FF"/>
<stop offset="0.5" stop-color="#A7D0FF"/>
<stop offset="0.65" stop-color="#79B7FF"/>
<stop offset="0.79" stop-color="#B1D5FF"/>
<stop offset="0.93" stop-color="#E9F3FF"/>
<stop offset="1" stop-color="white"/>
</linearGradient>
<linearGradient id="paint25_linear_99_540" x1="-96.0557" y1="342.379" x2="-95.8964" y2="798.844" gradientUnits="userSpaceOnUse">
<stop stop-color="white"/>
<stop offset="0.09" stop-color="#F9FBFF"/>
<stop offset="0.21" stop-color="#E8F3FF"/>
<stop offset="0.35" stop-color="#CDE4FF"/>
<stop offset="0.5" stop-color="#A7D0FF"/>
<stop offset="0.65" stop-color="#79B7FF"/>
<stop offset="0.79" stop-color="#B1D5FF"/>
<stop offset="0.93" stop-color="#E9F3FF"/>
<stop offset="1" stop-color="white"/>
</linearGradient>
<linearGradient id="paint26_linear_99_540" x1="-96.0557" y1="369.168" x2="-95.9177" y2="794.029" gradientUnits="userSpaceOnUse">
<stop stop-color="white"/>
<stop offset="0.09" stop-color="#F9FBFF"/>
<stop offset="0.21" stop-color="#E8F3FF"/>
<stop offset="0.35" stop-color="#CDE4FF"/>
<stop offset="0.5" stop-color="#A7D0FF"/>
<stop offset="0.65" stop-color="#79B7FF"/>
<stop offset="0.79" stop-color="#B1D5FF"/>
<stop offset="0.93" stop-color="#E9F3FF"/>
<stop offset="1" stop-color="white"/>
</linearGradient>
<linearGradient id="paint27_linear_99_540" x1="-96.0557" y1="387.986" x2="-95.937" y2="781.992" gradientUnits="userSpaceOnUse">
<stop stop-color="white"/>
<stop offset="0.09" stop-color="#F9FBFF"/>
<stop offset="0.21" stop-color="#E8F3FF"/>
<stop offset="0.35" stop-color="#CDE4FF"/>
<stop offset="0.5" stop-color="#A7D0FF"/>
<stop offset="0.65" stop-color="#79B7FF"/>
<stop offset="0.79" stop-color="#B1D5FF"/>
<stop offset="0.93" stop-color="#E9F3FF"/>
<stop offset="1" stop-color="white"/>
</linearGradient>
<linearGradient id="paint28_linear_99_540" x1="-96.0615" y1="402.616" x2="-95.9608" y2="765.527" gradientUnits="userSpaceOnUse">
<stop stop-color="white"/>
<stop offset="0.09" stop-color="#F9FBFF"/>
<stop offset="0.21" stop-color="#E8F3FF"/>
<stop offset="0.35" stop-color="#CDE4FF"/>
<stop offset="0.5" stop-color="#A7D0FF"/>
<stop offset="0.65" stop-color="#79B7FF"/>
<stop offset="0.79" stop-color="#B1D5FF"/>
<stop offset="0.93" stop-color="#E9F3FF"/>
<stop offset="1" stop-color="white"/>
</linearGradient>
<linearGradient id="paint29_linear_99_540" x1="-96.0615" y1="418.785" x2="-95.9782" y2="748.863" gradientUnits="userSpaceOnUse">
<stop stop-color="white"/>
<stop offset="0.09" stop-color="#F9FBFF"/>
<stop offset="0.21" stop-color="#E8F3FF"/>
<stop offset="0.35" stop-color="#CDE4FF"/>
<stop offset="0.5" stop-color="#A7D0FF"/>
<stop offset="0.65" stop-color="#79B7FF"/>
<stop offset="0.79" stop-color="#B1D5FF"/>
<stop offset="0.93" stop-color="#E9F3FF"/>
<stop offset="1" stop-color="white"/>
</linearGradient>
<linearGradient id="paint30_linear_99_540" x1="-96.0557" y1="439.806" x2="-95.9771" y2="760.473" gradientUnits="userSpaceOnUse">
<stop stop-color="white"/>
<stop offset="0.09" stop-color="#F9FBFF"/>
<stop offset="0.21" stop-color="#E8F3FF"/>
<stop offset="0.35" stop-color="#CDE4FF"/>
<stop offset="0.5" stop-color="#A7D0FF"/>
<stop offset="0.65" stop-color="#79B7FF"/>
<stop offset="0.79" stop-color="#B1D5FF"/>
<stop offset="0.93" stop-color="#E9F3FF"/>
<stop offset="1" stop-color="white"/>
</linearGradient>
<linearGradient id="paint31_linear_99_540" x1="-96.0615" y1="476.782" x2="-95.9796" y2="804.197" gradientUnits="userSpaceOnUse">
<stop stop-color="white"/>
<stop offset="0.09" stop-color="#F9FBFF"/>
<stop offset="0.21" stop-color="#E8F3FF"/>
<stop offset="0.35" stop-color="#CDE4FF"/>
<stop offset="0.5" stop-color="#A7D0FF"/>
<stop offset="0.65" stop-color="#79B7FF"/>
<stop offset="0.79" stop-color="#B1D5FF"/>
<stop offset="0.93" stop-color="#E9F3FF"/>
<stop offset="1" stop-color="white"/>
</linearGradient>
<linearGradient id="paint32_linear_99_540" x1="-96.0557" y1="544.354" x2="-95.9708" y2="877.603" gradientUnits="userSpaceOnUse">
<stop stop-color="white"/>
<stop offset="0.09" stop-color="#F9FBFF"/>
<stop offset="0.21" stop-color="#E8F3FF"/>
<stop offset="0.35" stop-color="#CDE4FF"/>
<stop offset="0.5" stop-color="#A7D0FF"/>
<stop offset="0.65" stop-color="#79B7FF"/>
<stop offset="0.79" stop-color="#B1D5FF"/>
<stop offset="0.93" stop-color="#E9F3FF"/>
<stop offset="1" stop-color="white"/>
</linearGradient>
<clipPath id="clip0_99_540">
<rect width="1620" height="552" fill="white"/>
</clipPath>
</defs>
</svg>
