<?xml version="1.0" encoding="UTF-8"?><svg xmlns="http://www.w3.org/2000/svg" xmlns:xlink="http://www.w3.org/1999/xlink" viewBox="0 0 2822.6 2020.3"><defs><style>.cls-1{fill:url(#linear-gradient-3);}.cls-1,.cls-2,.cls-3,.cls-4,.cls-5,.cls-6,.cls-7,.cls-8,.cls-9,.cls-10,.cls-11,.cls-12,.cls-13,.cls-14,.cls-15,.cls-16,.cls-17,.cls-18,.cls-19,.cls-20,.cls-21,.cls-22,.cls-23,.cls-24,.cls-25,.cls-26,.cls-27,.cls-28,.cls-29,.cls-30,.cls-31,.cls-32,.cls-33,.cls-34,.cls-35,.cls-36,.cls-37,.cls-38,.cls-39{mix-blend-mode:multiply;}.cls-2{fill:url(#linear-gradient-24);}.cls-3{fill:url(#linear-gradient-31);}.cls-4{fill:url(#linear-gradient-29);}.cls-5{fill:url(#linear-gradient-35);}.cls-6{fill:url(#linear-gradient-22);}.cls-7{fill:url(#linear-gradient-13);}.cls-8{fill:url(#linear-gradient-11);}.cls-9{fill:url(#linear-gradient-10);}.cls-10{fill:url(#linear-gradient-19);}.cls-11{fill:url(#linear-gradient);}.cls-12{fill:url(#linear-gradient-4);}.cls-13{fill:url(#linear-gradient-18);}.cls-14{fill:url(#linear-gradient-16);}.cls-15{fill:url(#linear-gradient-17);}.cls-16{fill:url(#linear-gradient-21);}.cls-40{isolation:isolate;}.cls-17{fill:url(#linear-gradient-37);}.cls-18{fill:url(#linear-gradient-28);}.cls-19{fill:url(#linear-gradient-26);}.cls-20{fill:url(#linear-gradient-38);}.cls-21{fill:url(#linear-gradient-6);}.cls-41{clip-path:url(#clippath-1);}.cls-22{fill:url(#linear-gradient-5);}.cls-23{fill:url(#linear-gradient-33);}.cls-24{fill:url(#linear-gradient-32);}.cls-25{fill:url(#linear-gradient-34);}.cls-26{fill:url(#linear-gradient-25);}.cls-27{fill:url(#linear-gradient-9);}.cls-28{fill:url(#linear-gradient-30);}.cls-29{fill:url(#linear-gradient-8);}.cls-30{fill:url(#linear-gradient-39);}.cls-31{fill:url(#linear-gradient-15);}.cls-42{fill:none;}.cls-32{fill:url(#linear-gradient-36);}.cls-33{fill:url(#linear-gradient-2);}.cls-34{fill:url(#linear-gradient-27);}.cls-35{fill:url(#linear-gradient-12);}.cls-36{fill:url(#linear-gradient-7);}.cls-37{fill:url(#linear-gradient-23);}.cls-38{fill:url(#linear-gradient-14);}.cls-39{fill:url(#linear-gradient-20);}</style><clipPath id="clippath-1"><rect class="cls-42" x="155.34" y="50.62" width="2598.08" height="1732.05"/></clipPath><linearGradient id="linear-gradient" x1="1411.3" y1="374.48" x2="1411.3" y2="1823.29" gradientUnits="userSpaceOnUse"><stop offset="0" stop-color="#fff"/><stop offset=".09" stop-color="#f9fbff"/><stop offset=".21" stop-color="#e8f3ff"/><stop offset=".35" stop-color="#cde4ff"/><stop offset=".5" stop-color="#a7d0ff"/><stop offset=".65" stop-color="#79b7ff"/><stop offset=".79" stop-color="#b1d5ff"/><stop offset=".93" stop-color="#e9f3ff"/><stop offset="1" stop-color="#fff"/></linearGradient><linearGradient id="linear-gradient-2" y1="374.48" y2="1823.29" xlink:href="#linear-gradient"/><linearGradient id="linear-gradient-3" x1="19.67" y1="374.48" x2="19.67" y2="1823.29" xlink:href="#linear-gradient"/><linearGradient id="linear-gradient-4" x1="65.25" y1="374.48" x2="65.25" y2="1823.29" xlink:href="#linear-gradient"/><linearGradient id="linear-gradient-5" x1="114.87" y1="374.48" x2="114.87" y2="1823.3" xlink:href="#linear-gradient"/><linearGradient id="linear-gradient-6" x1="168.81" y1="374.48" x2="168.81" y2="1823.29" xlink:href="#linear-gradient"/><linearGradient id="linear-gradient-7" x1="226.96" y1="374.48" x2="226.96" y2="1823.29" xlink:href="#linear-gradient"/><linearGradient id="linear-gradient-8" x1="288.77" y1="374.48" x2="288.77" y2="1823.29" xlink:href="#linear-gradient"/><linearGradient id="linear-gradient-9" x1="353.43" y1="374.48" x2="353.43" y2="1823.3" xlink:href="#linear-gradient"/><linearGradient id="linear-gradient-10" x1="419.97" y1="374.48" x2="419.97" y2="1823.29" xlink:href="#linear-gradient"/><linearGradient id="linear-gradient-11" x1="590.02" y1="374.48" x2="590.02" y2="1823.12" xlink:href="#linear-gradient"/><linearGradient id="linear-gradient-12" x1="876.34" y1="374.48" x2="876.34" y2="1823.29" xlink:href="#linear-gradient"/><linearGradient id="linear-gradient-13" x1="1163.99" y1="374.48" x2="1163.99" y2="1823.29" xlink:href="#linear-gradient"/><linearGradient id="linear-gradient-14" x1="1427.81" y1="374.48" x2="1427.81" y2="1823.29" xlink:href="#linear-gradient"/><linearGradient id="linear-gradient-15" x1="1675.49" y1="374.48" x2="1675.49" y2="1823.29" xlink:href="#linear-gradient"/><linearGradient id="linear-gradient-16" x1="1954.34" y1="374.48" x2="1954.34" y2="1823.29" xlink:href="#linear-gradient"/><linearGradient id="linear-gradient-17" x1="2247.5" y1="374.48" x2="2247.5" y2="1823.29" xlink:href="#linear-gradient"/><linearGradient id="linear-gradient-18" x1="2363.21" y1="374.48" x2="2363.21" y2="1823.29" xlink:href="#linear-gradient"/><linearGradient id="linear-gradient-19" x1="2431.99" y1="374.48" x2="2431.99" y2="1823.29" xlink:href="#linear-gradient"/><linearGradient id="linear-gradient-20" x1="2503.25" y1="374.48" x2="2503.25" y2="1823.3" xlink:href="#linear-gradient"/><linearGradient id="linear-gradient-21" x1="2577.59" y1="374.48" x2="2577.59" y2="1823.3" xlink:href="#linear-gradient"/><linearGradient id="linear-gradient-22" x1="1267.99" y1="374.48" x2="1267.99" y2="1823.29" xlink:href="#linear-gradient"/><linearGradient id="linear-gradient-23" x1="1291.75" y1="374.48" x2="1291.75" y2="1823.29" xlink:href="#linear-gradient"/><linearGradient id="linear-gradient-24" x1="1316.51" y1="374.48" x2="1316.51" y2="1823.29" xlink:href="#linear-gradient"/><linearGradient id="linear-gradient-25" x1="1342.49" y1="374.48" x2="1342.49" y2="1823.29" xlink:href="#linear-gradient"/><linearGradient id="linear-gradient-26" x1="1370.18" y1="374.48" x2="1370.18" y2="1823.29" xlink:href="#linear-gradient"/><linearGradient id="linear-gradient-27" x1="1400.29" y1="374.48" x2="1400.29" y2="1823.29" xlink:href="#linear-gradient"/><linearGradient id="linear-gradient-28" y1="374.48" y2="1823.29" xlink:href="#linear-gradient"/><linearGradient id="linear-gradient-29" y1="374.48" y2="1823.29" xlink:href="#linear-gradient"/><linearGradient id="linear-gradient-30" y1="374.48" y2="1823.3" xlink:href="#linear-gradient"/><linearGradient id="linear-gradient-31" y1="374.48" y2="1823.29" xlink:href="#linear-gradient"/><linearGradient id="linear-gradient-32" y1="374.48" y2="1823.29" xlink:href="#linear-gradient"/><linearGradient id="linear-gradient-33" y1="374.49" y2="1823.29" xlink:href="#linear-gradient"/><linearGradient id="linear-gradient-34" y1="374.48" y2="1823.3" xlink:href="#linear-gradient"/><linearGradient id="linear-gradient-35" y1="374.48" y2="1823.29" xlink:href="#linear-gradient"/><linearGradient id="linear-gradient-36" y1="374.48" y2="1823.29" xlink:href="#linear-gradient"/><linearGradient id="linear-gradient-37" y1="374.48" y2="1823.29" xlink:href="#linear-gradient"/><linearGradient id="linear-gradient-38" y1="374.48" y2="1823.29" xlink:href="#linear-gradient"/><linearGradient id="linear-gradient-39" y1="374.48" y2="1823.29" xlink:href="#linear-gradient"/></defs><g class="cls-40"><g id="Layer_1"><g class="cls-41"><g><path class="cls-11" d="m612.15,1881.14c-117.01-19.84-235.56-40.89-350.21-61.24-86.18-15.3-174.19-30.92-261.94-46.1v3.29c87.52,15.14,175.3,30.72,261.25,45.98,114.65,20.36,233.21,41.4,350.23,61.25,608.71,103.18,1090.34,145.79,1515.75,134.11,220.93-6.12,454.51-26.31,695.37-60.03v-3.28c-240.86,33.73-474.54,53.96-695.48,60.07-425.14,11.68-906.53-30.91-1514.97-134.05Z"/><path class="cls-33" d="m2673.33,329.28c-14.23-32.27-27.68-62.75-41.17-91.34-41.03-86.92-77.05-153.24-104.15-191.8-21.98-31.24-36.74-44.66-37.36-45.22l-1.02-.92-1.21.7c-.49.29-50.4,29.24-134.02,78.71-10.89,6.44-22.3,13.23-34.21,20.33-79.38,47.26-178.17,106.08-295.52,164.22-154.05,76.28-294.12,122.38-428.75,140.9-133.74,18.38-288.58,11.77-487.28-20.8-37.91-6.22-76.16-12.88-113.16-19.32-132.36-23.04-257.38-44.81-377.66-49.77-136.2-5.57-270.2,14.03-377.33,55.18C125.87,414.27,46.16,466.82,0,502.56v4.26c45.49-35.54,125.62-88.94,241.91-133.69,106.64-40.97,240.09-60.48,375.76-54.93,120.02,4.95,244.91,26.69,377.15,49.71,37,6.44,75.27,13.11,113.19,19.33,199.11,32.63,354.32,39.25,488.46,20.82,135.07-18.59,275.5-64.8,429.93-141.26,117.49-58.2,216.34-117.06,295.77-164.35,11.91-7.09,23.31-13.88,34.2-20.32,76.34-45.16,124.57-73.22,132.76-77.98,3.68,3.55,17.32,17.35,35.87,43.73,27,38.41,62.92,104.57,103.88,191.33,13.48,28.56,26.91,59.02,41.14,91.27,41.85,94.91,88.8,201.28,152.59,292.36v-6.15c-62.08-89.86-108.15-194.18-149.27-287.41Z"/><path class="cls-1" d="m36.36,481.17c-.46.63-11.51,15.86-24.84,48.01-3.82,9.23-7.67,19.83-11.53,31.65v11.72c4.98-16.19,9.95-30.35,14.88-42.24,13.16-31.76,24.36-47.2,24.47-47.35l-2.98-1.79Z"/><path class="cls-12" d="m127.48,423.73c-.44.63-10.86,15.68-23.18,47.53-14.93,38.62-30.14,101.34-44.01,181.36-3.77,21.78-7.29,44.57-11.01,68.69-11.64,75.4-24.53,158.67-49.28,236.47v11.47c27.09-80.98,40.64-168.54,52.83-247.5,3.72-24.11,7.24-46.88,11-68.63,13.84-79.84,29-142.36,43.86-180.8,12.17-31.45,22.72-46.71,22.82-46.87l-3.02-1.73Z"/><path class="cls-22" d="m226.66,375.95c-.41.62-10.05,15.55-21.21,47.14-13.57,38.45-27.12,101.26-39.19,181.64-3.56,23.7-6.75,48.59-10.13,74.95-19.26,150.21-42.68,331.96-156.13,436.38v4.63c116.52-104.78,140.2-288.76,159.68-440.63,3.38-26.34,6.57-51.22,10.12-74.89,12.05-80.19,25.55-142.81,39.06-181.09,11.01-31.19,20.78-46.33,20.88-46.47l-3.08-1.65Z"/><path class="cls-21" d="m334.48,341c-.37.62-9.1,15.49-18.92,46.89-11.98,38.38-23.61,101.33-33.61,182.05-2.47,19.93-4.75,40.49-7.17,62.26-8.43,75.98-17.99,162.11-39.17,248.7-29.61,120.92-82.75,203.41-157.93,245.2-22.13,12.28-48.18,22.35-77.69,30.3v3.35c30.23-8.06,56.91-18.33,79.56-30.89,76.04-42.26,129.72-125.45,159.55-247.25,21.22-86.78,30.79-173,39.23-249.08,2.41-21.76,4.7-42.31,7.16-62.22,9.98-80.55,21.57-143.32,33.5-181.54,9.69-31.01,18.53-46.09,18.62-46.24l-3.15-1.53Z"/><path class="cls-36" d="m450.67,320.63c-.32.62-7.99,15.51-16.31,46.83-10.19,38.42-19.63,101.59-27.3,182.68-1.89,20.06-3.61,40.74-5.42,62.63-6.32,76.34-13.49,162.87-31.24,250.05-25.14,123.31-70.69,203.58-139.23,245.42-37.46,22.82-87.33,37.86-148.27,44.72-26.38,2.96-54.3,4.48-82.91,5.2v3.23c28.75-.73,56.81-2.25,83.35-5.23,61.49-6.92,111.9-22.14,149.83-45.26,69.38-42.35,115.41-123.32,140.75-247.52,17.78-87.36,24.96-173.97,31.29-250.39,1.81-21.88,3.52-42.56,5.42-62.6,7.65-80.93,17.07-143.94,27.22-182.21,8.21-30.95,15.99-46.05,16.06-46.21l-3.24-1.38Z"/><path class="cls-29" d="m574.21,314.94c-.28.62-6.75,15.61-13.43,46.96-8.21,38.57-15.26,102.04-20.37,183.55-1.27,20.2-2.36,41.03-3.51,63.07-4.02,76.71-8.57,163.66-22.49,251.48-12.58,79.2-38.52,190.98-118.16,247.02-32.23,22.63-77.25,38.19-130.37,44.93-57.44,7.31-123.18,6.04-186.75,4.81l-3.9-.07c-24.79-.48-49.88-.94-75.21-1.18v3.23c25.31.24,50.38.7,75.14,1.18l3.9.08c63.71,1.23,129.6,2.5,187.33-4.84,53.64-6.87,99.35-22.6,132.07-45.58,80.67-56.76,106.84-169.36,119.51-249.11,13.95-87.98,18.5-175,22.52-251.79,1.15-22.04,2.25-42.86,3.51-63.05,5.11-81.37,12.13-144.69,20.31-183.12,6.61-31.01,13.18-46.23,13.24-46.38l-3.32-1.19Z"/><path class="cls-27" d="m703.44,322.25c-.05.15-5.41,15.77-10.35,47.26-6.1,38.82-10.58,102.67-12.98,184.64-.6,20.34-1.03,41.56-1.47,63.5-1.57,77.13-3.35,164.54-13.15,253.07-6.82,61.45-16.49,108.48-30.45,147.99-15.61,44.15-37.44,78.43-64.88,101.89-57.2,48.81-164.04,54.64-270.98,53.66l-3.15-.03c-63.64-.58-129.46-1.19-196.9,4.93-34.12,3.1-67.17,7.96-99.12,14.35v3.31c32.05-6.44,65.21-11.33,99.47-14.44,67.25-6.1,132.96-5.49,196.5-4.91l3.16.03c107.69.98,215.36-4.95,273.48-54.55,27.88-23.84,50.03-58.58,65.83-103.26,14.04-39.74,23.76-86.97,30.6-148.65,9.82-88.66,11.6-176.15,13.17-253.34.45-21.93.88-43.14,1.47-63.48,2.39-81.85,6.87-145.57,12.94-184.27,4.9-31.19,10.17-46.6,10.22-46.75l-3.41-.96Z"/><path class="cls-9" d="m839.94,340.1l-3.49-.72c-.04.16-3.99,15.99-7.14,47.71-3.89,39.15-5.72,103.44-5.3,185.9.11,20.47.37,41.84.64,63.92.96,77.58,2.05,165.52-3.44,254.78-3.83,61.98-10.44,109.53-20.81,149.63-11.76,45.44-28.31,79.49-50.58,104.11-46.08,50.83-142.81,59.01-221.93,60.46l-2.43.04c-52.76.97-107.32,1.96-162.91,9.76-.84.12-1.69.24-2.54.36-62.46,9.03-122.88,27.02-174.9,52.07-57.68,27.8-112.56,66.88-163.13,116.16-7.43,7.24-14.73,14.77-21.98,22.43v5.01c8.11-8.65,16.28-17.12,24.61-25.24,50.29-49.01,104.86-87.88,162.19-115.51,52.37-25.22,113.18-43.19,176.31-52.08,55.35-7.77,109.79-8.76,162.43-9.73l2.42-.04c79.9-1.47,177.62-9.8,224.63-61.64,22.63-25.01,39.41-59.49,51.3-105.42,10.42-40.29,17.05-88.01,20.89-150.19,5.5-89.38,4.41-177.37,3.44-255-.27-22.08-.54-43.43-.64-63.9-.42-82.37,1.4-146.54,5.28-185.6,3.13-31.47,7.03-47.12,7.07-47.27Z"/><path class="cls-8" d="m200.54,1810.71l-3.47-.76c.22-.82,22.68-83.63,78.16-202.88,29.72-63.84,60.63-117.23,94.49-163.22,37.93-51.5,79.63-92.89,123.94-123.04,40.52-27.54,88.09-48.07,137.57-59.38,43.41-9.91,86.57-12.94,128.32-15.88l1.16-.08c88.2-6.22,145.91-29.37,171.55-68.86,16.84-25.97,28.27-59.89,35.97-106.74,6.7-40.76,10.18-88.88,10.95-151.43,1.11-90.05-2.9-178.56-6.44-256.65-1.01-22.19-1.98-43.66-2.79-64.24-3.29-82.96-4.16-147.71-2.51-187.25,1.34-32.01,3.87-48.06,3.89-48.22l3.54.46c-.03.16-2.53,16.07-3.86,47.88-1.64,39.46-.77,104.13,2.51,187.01.81,20.57,1.79,42.03,2.79,64.22,3.54,78.13,7.55,166.69,6.44,256.82-.78,62.7-4.27,110.95-11,151.86-7.77,47.27-19.35,81.55-36.43,107.9-26.28,40.45-84.95,64.15-174.36,70.44l-1.17.08c-41.59,2.92-84.6,5.95-127.72,15.79-49.02,11.21-96.15,31.55-136.3,58.84-43.99,29.92-85.41,71.05-123.11,122.24-33.73,45.82-64.54,99.04-94.17,162.69-55.37,118.99-77.77,201.57-77.99,202.39Z"/><path class="cls-35" d="m613.59,1882.94l-3.55-.42c.12-.83,12.52-84.88,47.55-208.32,18.94-66.69,38.38-120.43,61.2-169.1,25.57-54.5,53.19-97.03,84.44-130.01,28.23-29.76,61.91-52.78,97.41-66.59,31.13-12.09,64.25-17.53,93.48-22.33,27.32-4.48,53.52-9.45,73.87-20.78,20.33-11.34,36.65-30.94,47.19-56.67,11.05-27.03,17.82-61.82,21.29-109.47,3.05-41.99,3.38-89.26,1.07-153.25-3.28-90.74-10.22-179.8-16.34-258.38-1.74-22.36-3.43-43.98-4.96-64.71-6.16-83.44-9.73-148.66-10.34-188.61-.48-32.32.62-48.59.63-48.75l3.57.21c-.01.16-1.11,16.32-.62,48.5.6,39.9,4.18,105.06,10.33,188.44,1.53,20.72,3.21,42.34,4.95,64.69,6.12,78.61,13.06,167.7,16.35,258.5,2.32,64.1,1.99,111.46-1.07,153.57-3.49,47.98-10.33,83.05-21.51,110.38-10.82,26.42-27.65,46.58-48.67,58.3-20.88,11.63-47.44,16.67-75.11,21.21-29.04,4.77-61.95,10.17-92.71,22.11-35.01,13.61-68.24,36.34-96.11,65.72-31.01,32.72-58.44,74.98-83.86,129.17-22.75,48.52-42.14,102.11-61.03,168.64-34.98,123.24-47.35,207.11-47.47,207.94Z"/><path class="cls-7" d="m1024,1946.97l-3.58-.14c.01-.22,1.08-22.46,3.71-61.83,2.57-38.38,6.42-90.31,13.43-151.79,7.83-68.58,16.78-124.07,28.17-174.62,12.75-56.58,27.53-101.16,45.19-136.27,16.2-32.18,35.51-56.73,57.39-72.97,18.98-14.06,41.38-22.1,57.74-27.97,16.57-5.95,33.49-13.09,44.9-24.97,12.26-12.77,21.07-32.96,26.2-60.01,5.37-28.39,7.43-62.93,6.65-111.99-.66-42.06-3.45-91.31-8.78-154.97-7.67-91.53-17.55-181.27-26.26-260.45-2.47-22.39-4.85-44.05-7.08-64.81-9.02-83.9-15.29-149.58-18.14-189.92-2.3-32.62-2.6-49.06-2.61-49.22l3.58-.05c0,.16.31,16.53,2.6,49.07,2.85,40.3,9.11,105.94,18.12,189.81,2.23,20.76,4.62,42.41,7.08,64.8,8.71,79.2,18.59,168.96,26.26,260.52,5.34,63.74,8.13,113.05,8.8,155.18.77,49.27-1.29,84-6.7,112.58-5.32,28.03-14.16,48.17-27.03,61.58-11.92,12.41-29.29,19.77-46.29,25.86-16.14,5.79-38.24,13.72-56.79,27.46-21.46,15.92-40.44,40.08-56.4,71.81-17.55,34.89-32.25,79.24-44.95,135.58-11.36,50.44-20.29,105.83-28.11,174.3-7.01,61.42-10.86,113.31-13.42,151.65-2.64,39.34-3.7,61.56-3.71,61.78Z"/><path class="cls-38" d="m1432.56,1994.08l-3.57.22s-1.68-22.51-4.4-63.28c-2.61-39.3-6-92.5-8.95-155.53-3.29-70.27-4.84-127.31-4.88-179.5-.04-59.09,1.89-103.95,6.05-141.19,3.82-34.07,9.48-59.39,17.29-77.41,5.91-13.6,14.02-23.42,21.9-31.99,5.28-5.75,12.75-14.9,16.5-27.85,4.16-14.36,5.8-33.71,5.35-62.76-.46-29.15-2.92-64.32-7.98-114.02-4.33-42.56-10.25-92.29-18.64-156.5-12.06-92.3-24.89-182.75-36.21-262.56-3.18-22.4-6.25-44.06-9.17-64.83-11.9-84.59-20.87-150.67-25.92-191.11-4.11-32.87-5.81-49.41-5.83-49.58l3.56-.3c.01.16,1.71,16.68,5.82,49.51,5.05,40.43,14.01,106.49,25.92,191.06,2.92,20.77,5.99,42.43,9.17,64.83,11.32,79.82,24.16,170.28,36.22,262.6,8.39,64.24,14.32,114,18.65,156.58,5.07,49.8,7.53,85.04,8,114.28.46,29.35-1.22,48.97-5.46,63.62-3.94,13.58-11.71,23.12-17.21,29.1-7.69,8.37-15.59,17.93-21.32,31.11-7.7,17.74-13.28,42.78-17.06,76.55-4.16,37.12-6.07,81.88-6.03,140.86.04,52.14,1.59,109.13,4.87,179.36,2.95,63.01,6.33,116.19,8.94,155.48,2.71,40.76,4.39,63.25,4.39,63.26Z"/><path class="cls-31" d="m1841.36,2017.81s-4.52-23.05-12.81-64.77c-8.06-40.55-19-95.29-32.11-159.12-14.78-71.98-27.12-130.3-38.86-183.53-13.3-60.35-24.06-106.22-33.87-144.34-9.05-35.2-16.42-60.33-23.18-79.09-4.97-13.78-9.86-23.92-14.4-32.82-3.18-6.23-7.91-16.1-12.23-29.84-4.69-14.91-9.62-34.77-16-64.41-6.37-29.57-13.39-65.15-22.78-115.34-8.11-43.34-16.93-92-28.6-157.75-16.38-92.29-32.12-182.87-46-262.78l-11.6-66.71c-14.76-84.78-26.44-151.22-33.78-192.15-5.99-33.41-9.05-49.78-9.05-49.78l3.53-.54s3.06,16.37,9.06,49.8c7.34,40.93,19.02,107.38,33.78,192.16l11.6,66.71c13.88,79.91,29.62,170.48,46,262.77,11.67,65.75,20.49,114.39,28.59,157.72,9.38,50.17,16.4,85.72,22.76,115.26,6.36,29.54,11.27,49.32,15.93,64.14,4.25,13.51,8.91,23.23,12.04,29.36,4.59,8.99,9.53,19.23,14.56,33.17,6.79,18.85,14.18,44.07,23.26,79.36,9.81,38.16,20.58,84.06,33.9,144.44,11.74,53.25,24.09,111.58,38.87,183.57,13.11,63.84,24.04,118.58,32.11,159.14,8.29,41.72,12.81,64.77,12.81,64.77l-3.52.57Z"/><path class="cls-14" d="m2267.63,2011.56c-.08-.24-7.79-24.12-21.99-66.31-13.85-41.12-32.86-96.75-57.23-162.53-27.11-73.17-51.06-132.43-75.39-186.51-27.05-60.15-51.98-107.68-76.23-145.33-21.98-34.11-43.97-60.38-65.35-78.09-16.97-14.03-34.84-23.1-51.69-31.19-13.98-6.71-29.97-15.36-42.62-28.65-13.57-14.27-26.09-35.27-38.27-64.2-12.27-29.14-24.36-65.92-38.03-115.75-11.83-43.11-24.18-93.52-38.85-158.66-21.03-93.38-39.95-185.07-56.64-265.97-4.68-22.66-9.19-44.56-13.56-65.55-17.76-85.31-32.23-152.04-41.84-192.97-7.78-33.1-12.29-49.63-12.33-49.79l3.47-.78c.05.16,4.57,16.74,12.36,49.9,9.62,40.95,24.1,107.71,41.86,193.05,4.37,20.99,8.89,42.9,13.56,65.56,16.69,80.89,35.6,172.57,56.63,265.91,14.67,65.09,27,115.46,38.82,158.53,13.64,49.7,25.68,86.36,37.9,115.38,12.04,28.58,24.35,49.26,37.64,63.25,12.26,12.88,27.9,21.33,41.58,27.9,17.05,8.19,35.15,17.37,52.42,31.66,21.65,17.93,43.87,44.46,66.03,78.85,24.32,37.77,49.33,85.44,76.45,145.74,24.35,54.14,48.32,113.47,75.46,186.7,24.38,65.81,43.41,121.47,57.26,162.61,14.21,42.21,21.93,66.11,22,66.34l-3.43.91Z"/><path class="cls-15" d="m2606.52,1735.68c-40.66-73.25-78.9-134.87-116.9-188.4-42.79-60.24-83.3-107.39-123.87-144.14-36.81-33.32-74.73-58.35-112.71-74.38-32.66-13.78-66.07-20.75-92.92-26.35-25.14-5.25-51.53-11.42-73.49-23.86-22.26-12.63-42.65-33.06-60.61-60.7-18.46-28.43-35.55-64.81-53.8-114.48-15.79-43-31.54-93.5-49.57-158.91-25.78-93.61-47.92-185.8-67.45-267.14-5.5-22.91-10.82-45.05-15.98-66.25-20.91-85.83-38.3-152.8-50.3-193.68-9.73-33.15-15.73-49.6-15.79-49.76l-3.39,1.02c.06.16,6.03,16.54,15.73,49.57,11.99,40.84,29.36,107.77,50.27,193.55,5.16,21.2,10.48,43.34,15.98,66.24,19.54,81.36,41.69,173.57,67.48,267.23,18.05,65.5,33.82,116.07,49.65,159.15,18.33,49.89,35.52,86.46,54.11,115.1,18.25,28.1,39.04,48.89,61.79,61.8,22.43,12.71,49.15,18.96,74.58,24.28,26.69,5.57,59.9,12.49,92.22,26.13,37.6,15.88,75.18,40.68,111.69,73.74,40.39,36.58,80.75,83.56,123.4,143.6,37.93,53.42,76.11,114.95,116.71,188.1,37.06,66.77,65.45,123.59,86.04,165.64,21.12,43.13,32.49,67.65,32.6,67.89l3.3-1.25c-.11-.24-11.49-24.79-32.63-67.96-20.61-42.08-49.03-98.95-86.12-165.78Z"/><path class="cls-13" d="m2822.6,1400.43c-36.65-29.99-73.04-55.51-108.79-76.17-52.8-30.49-110.12-53.12-165.79-65.44-48.27-10.67-96.02-13.97-138.14-16.87-91.55-6.33-155.11-30.08-194.34-72.62-25.18-27.35-47.72-63.08-70.93-112.45-20.08-42.73-39.5-93.2-61.12-158.83-30.91-93.88-56.54-186.67-79.16-268.54-6.36-23.04-12.51-45.3-18.51-66.6-24.26-86.21-44.76-153.3-59.3-194.03-11.78-33-19.36-49.21-19.43-49.37l-3.29,1.26c.07.16,7.59,16.25,19.32,49.09,14.52,40.67,35,107.7,59.23,193.83,5.99,21.3,12.14,43.56,18.5,66.59,22.62,81.9,48.26,174.74,79.19,268.69,21.66,65.75,41.12,116.32,61.26,159.17,23.35,49.67,46.07,85.66,71.47,113.26,39.88,43.24,104.25,67.37,196.81,73.77,41.99,2.9,89.57,6.19,137.56,16.79,55.29,12.23,112.25,34.72,164.72,65.02,36.36,21.01,73.4,47.04,110.71,77.77v-4.32Z"/><path class="cls-10" d="m2822.6,1157.15c-50.6-2.31-99.17-1.05-146.46.22h-.46c-86.69,2.34-194.81-1.77-262.03-54.69-32.14-25.34-61.51-61.05-89.79-109.18-24.76-42.17-48.2-92.44-73.76-158.2-36.51-93.95-65.93-187.29-91.89-269.65-7.31-23.19-14.37-45.6-21.28-67.02-27.88-86.51-51.76-153.6-69.04-194.03-14-32.73-23.26-48.54-23.35-48.7l-3.16,1.52c.09.16,9.27,15.83,23.17,48.35,17.25,40.35,41.09,107.35,68.94,193.77,6.9,21.41,13.96,43.81,21.27,67,25.97,82.4,55.42,175.79,91.96,269.83,25.62,65.92,49.13,116.33,73.98,158.65,28.48,48.48,58.12,84.49,90.6,110.1,68.16,53.66,177.15,57.84,264.49,55.5h.47c47.26-1.28,95.81-2.54,146.35-.23v-3.24Z"/><path class="cls-39" d="m2822.6,1060.75c-18.54.42-36.75.3-54.12-.78-55.44-3.44-105.72-17.28-145.4-40.03-39.77-22.84-77.07-58.04-110.86-104.64-29.96-41.34-57.85-91.23-87.78-157-42.69-93.86-76.31-187.76-105.97-270.59-8.34-23.29-16.4-45.79-24.29-67.27-31.86-86.74-59.42-153.7-79.69-193.65-16.41-32.33-27.5-47.62-27.61-47.77l-2.98,1.78c.11.15,11.06,15.27,27.34,47.34,20.21,39.84,47.72,106.69,79.55,193.33,7.89,21.48,15.94,43.96,24.28,67.25,29.68,82.89,63.32,176.84,106.07,270.83,30.02,65.96,58.01,116.02,88.09,157.54,34.07,46.99,71.73,82.52,111.94,105.6,40.18,23.04,91.03,37.05,147.07,40.53,17.46,1.08,35.75,1.2,54.36.78v-3.23Z"/><path class="cls-16" d="m2822.6,913.72c-39.95-20.43-77.25-49.84-111.1-87.93-35.74-40.25-68.59-89.57-103.37-155.22-49.52-93.53-87.77-187.89-121.52-271.15-9.58-23.64-18.63-45.97-27.62-67.51-36.25-86.9-67.85-153.6-91.38-192.89-19.06-31.82-32.15-46.45-32.27-46.59l-2.77,2.04c.13.14,13.03,14.57,31.9,46.09,23.45,39.17,54.98,105.73,91.17,192.49,8.98,21.53,18.03,43.85,27.61,67.48,33.77,83.33,72.05,177.77,121.65,271.43,34.9,65.89,67.89,115.41,103.81,155.86,34.64,38.97,72.88,68.98,113.89,89.65v-3.74Z"/><path class="cls-6" d="m2534.08,58.14c-.52.29-52.41,29.77-139.32,80.13-11.3,6.55-23.15,13.45-35.51,20.66-82.4,48.04-184.94,107.82-306.44,166.75-159.31,77.23-304.1,123.78-442.77,142.27-137.79,18.33-297.22,11.23-501.75-22.34-39.03-6.41-78.42-13.27-116.52-19.9-136.2-23.72-264.84-46.12-388.57-51.45-140.07-5.98-277.7,13.59-387.58,55.11C120.42,465.4,48.83,507.16,0,540.93v4.07c48.64-33.86,120.68-76.19,217-112.65,109.38-41.34,246.48-60.83,386.02-54.87,123.48,5.32,251.99,27.7,388.06,51.4,38.1,6.64,77.5,13.5,116.55,19.91,204.92,33.63,364.73,40.74,502.92,22.36,3.97-.53,7.93-1.08,11.92-1.66,135.42-19.58,276.9-65.75,432.02-140.96,121.63-59,224.24-118.82,306.69-166.89,12.36-7.2,24.2-14.11,35.5-20.65,86.9-50.34,138.78-79.82,139.29-80.11l-1.9-2.74Z"/><path class="cls-37" d="m2581.63,139.97c-.53.29-54.35,30.04-144.45,80.81-11.68,6.58-23.92,13.52-36.69,20.77-85.33,48.39-191.53,108.61-317.04,167.8-164.34,77.47-313.55,124.02-456.15,142.17-141.62,18.01-305.37,10.33-515.33-24.19-40.07-6.59-80.51-13.64-119.62-20.46-139.79-24.36-271.83-47.38-398.8-53.15-143.67-6.49-284.74,12.8-397.21,54.28-82.68,30.56-147.98,65.41-196.34,95.97v3.95c48.36-30.75,114.07-66.03,197.69-96.93,111.99-41.31,252.52-60.5,395.68-54.04,126.72,5.76,258.64,28.75,398.3,53.09,39.12,6.82,79.57,13.87,119.66,20.46,210.35,34.58,374.46,42.28,516.47,24.21,6.32-.81,12.65-1.67,18.99-2.59,137.26-19.85,280.88-65.71,438.31-139.92,125.64-59.25,231.9-119.51,317.29-167.93,12.77-7.24,25-14.18,36.68-20.76,90.08-50.76,143.89-80.49,144.42-80.79l-1.87-2.76Z"/><path class="cls-2" d="m2631.19,240.53c-.55.29-56.28,30.08-149.53,80.91-12.06,6.58-24.7,13.51-37.88,20.74-88.24,48.4-198.07,108.64-327.5,167.64-169.31,77.14-322.79,123.26-469.24,140.92-145.33,17.49-313.25,9.13-528.44-26.33-41.04-6.77-82.46-13.99-122.52-20.98-143.27-24.99-278.59-48.59-408.7-54.88-147.15-7.06-291.53,11.7-406.52,52.84-73.72,26.42-133.87,56.23-180.85,83.66v3.84c47.06-27.62,107.66-57.79,182.16-84.49,114.52-40.98,258.36-59.66,405.01-52.62,129.87,6.27,265.07,29.86,408.22,54.82,40.06,6.99,81.49,14.21,122.55,20.98,215.57,35.52,383.84,43.89,529.56,26.35,9.35-1.13,18.72-2.37,28.13-3.73,138.36-20,283.37-65.12,442.24-137.5,129.56-59.06,239.45-119.33,327.75-167.77,13.18-7.23,25.81-14.16,37.87-20.73,93.24-50.82,148.96-80.6,149.51-80.9l-1.82-2.78Z"/><path class="cls-26" d="m2683.22,352.18c-.57.29-58.28,30-154.81,80.69-12.46,6.54-25.51,13.44-39.12,20.63-91.26,48.22-204.84,108.24-338.3,166.8-174.41,76.49-332.27,121.96-482.64,138.98-149.13,16.84-321.27,7.72-541.74-28.69-42.04-6.95-84.47-14.35-125.51-21.52-146.78-25.62-285.41-49.82-418.68-56.68-150.69-7.71-298.41,10.41-415.95,51.02-66.03,22.85-121.46,48.42-166.47,72.73v3.77c45.17-24.52,101-50.39,167.75-73.49,117.09-40.44,264.28-58.49,414.47-50.81,133.03,6.85,271.55,31.03,418.21,56.63,41.04,7.16,83.48,14.57,125.55,21.52,220.84,36.47,393.33,45.59,542.82,28.72,12.96-1.47,25.98-3.15,39.06-5.04,139.03-20.1,284.97-64.19,444.7-134.24,133.59-58.61,247.23-118.66,338.54-166.91,13.61-7.19,26.65-14.08,39.11-20.62,96.52-50.68,154.21-80.39,154.78-80.68l-1.77-2.81Z"/><path class="cls-19" d="m2738.64,466.44c-.59.29-60.46,29.93-160.58,80.47-12.88,6.5-26.37,13.35-40.43,20.5-94.56,48.03-212.25,107.81-350.11,165.92-179.94,75.8-342.55,120.62-497.18,136.91-153.21,16.13-329.92,6.2-556.11-31.24-43.14-7.14-86.67-14.75-128.78-22.11-150.54-26.3-292.74-51.14-429.42-58.61-154.48-8.4-305.81,9.02-426.09,49.08-57.93,19.32-107.85,40.72-149.95,61.66v3.68c42.3-21.13,92.65-42.77,151.19-62.3,119.84-39.9,270.64-57.26,424.64-48.89,136.44,7.46,278.52,32.28,428.95,58.56,42.11,7.35,85.66,14.96,128.81,22.11,226.55,37.5,403.59,47.43,557.17,31.27,17.08-1.8,34.23-3.95,51.51-6.45,139.59-20.18,286.34-63.17,446.76-130.75,137.99-58.15,255.74-117.96,350.36-166.02,14.06-7.14,27.54-13.99,40.42-20.49,100.1-50.53,159.96-80.16,160.55-80.45l-1.72-2.83Z"/><path class="cls-34" d="m2798.92,575.14c-.62.29-63,29.98-167.26,80.57-13.39,6.5-27.4,13.34-42.02,20.48-98.34,48.02-220.73,107.79-363.64,165.63-186.29,75.36-354.37,119.61-513.82,135.29-157.88,15.46-339.81,4.68-572.56-33.93-44.38-7.36-89.18-15.2-132.5-22.77-154.89-27.08-301.18-52.66-441.76-60.78-158.83-9.13-314.24,7.66-437.59,47.29-47.88,15.41-90.45,32.22-127.77,49.09v3.62c37.58-17.05,80.53-34.08,128.97-49.66,122.91-39.47,277.82-56.21,436.16-47.11,140.35,8.11,286.54,33.67,441.31,60.73,43.33,7.57,88.13,15.41,132.53,22.78,233.1,38.66,415.37,49.45,573.6,33.96,21.54-2.12,43.22-4.75,65.09-7.92,140.45-20.31,288.32-62.31,449.81-127.63,143.03-57.89,265.48-117.69,363.88-165.74,14.61-7.14,28.62-13.98,42.01-20.47,104.24-50.58,166.62-80.26,167.23-80.56l-1.67-2.86Z"/><path class="cls-18" d="m2690.71,752.44c-13.99,6.54-28.63,13.42-43.89,20.6-102.88,48.39-230.91,108.61-379.89,166.64-193.84,75.47-368.4,119.51-533.67,134.66-163.45,14.91-351.65,3.24-592.26-36.75-45.88-7.63-92.19-15.73-136.97-23.57-160.08-28.01-311.29-54.47-456.53-63.26-164.01-9.88-324.25,6.41-451.18,45.89-34.83,10.85-66.94,22.44-96.32,34.28v3.55c29.69-12,62.16-23.76,97.48-34.77,126.48-39.34,286.22-55.58,449.78-45.72,145.01,8.78,296.11,35.22,456.08,63.21,44.79,7.84,91.11,15.94,137.01,23.58,240.95,40.04,429.46,51.73,593.26,36.79,26.23-2.4,52.7-5.53,79.44-9.4,142.08-20.54,291.87-61.88,455.29-125.51,149.1-58.08,277.2-118.33,380.13-166.74,15.26-7.18,29.9-14.06,43.88-20.6,55.79-26.07,100.11-46.63,130.25-60.57v-3.63c-30.16,13.94-75.08,34.78-131.89,61.33Z"/><path class="cls-4" d="m2757.26,831.77c-14.76,6.67-30.21,13.69-46.31,21.01-108.44,49.3-243.39,110.65-399.82,169.52-203.06,76.39-385.57,120.72-557.95,135.53-170.24,14.56-366.09,1.94-616.36-39.73-47.73-7.95-95.91-16.39-142.49-24.54-166.46-29.15-323.68-56.67-474.62-66.17-170.34-10.67-336.41,5.35-467.6,45.1-18.14,5.5-35.44,11.32-52.11,17.32v3.48c17-6.15,34.69-12.11,53.24-17.74,130.77-39.62,296.34-55.58,466.21-44.94,150.72,9.48,307.84,36.99,474.19,66.12,46.6,8.16,94.78,16.59,142.53,24.55,250.6,41.72,446.77,54.36,617.35,39.76,31.05-2.67,62.42-6.29,94.18-10.88,144.95-20.96,297.97-62.12,464.81-124.88,156.54-58.91,291.56-120.3,400.05-169.62,16.1-7.32,31.54-14.34,46.31-21.01,23.18-10.47,44.46-20.07,63.74-28.73v-3.61c-19.69,8.86-41.51,18.69-65.34,29.45Z"/><path class="cls-28" d="m2784.49,911.83c-115.36,50.94-258.93,114.34-424.61,174.89-214.53,78.36-406.87,123.62-588.01,138.33-178.61,14.46-383.93.83-646.17-42.89-50.03-8.35-100.52-17.19-149.35-25.75-174.34-30.54-339.01-59.39-496.99-69.63-174.61-11.26-344.35,3.96-479.37,42.78v3.38c134.76-38.92,304.48-54.2,479.11-42.94,157.76,10.22,322.33,39.05,496.56,69.58,48.84,8.56,99.33,17.4,149.38,25.75,262.56,43.78,468.2,57.42,647.14,42.93,35.89-2.92,72.2-7.03,109.05-12.36,149.49-21.62,307.6-63.24,479.97-126.2,165.8-60.59,309.43-124.01,424.84-174.98,12.6-5.57,24.7-10.9,36.54-16.11v-3.6c-12.33,5.43-24.95,10.99-38.11,16.8Z"/><path class="cls-3" d="m2414.85,1131.71c-228.76,81.62-433.28,128.57-625.3,143.5-188.95,14.64-405.98-.07-683-46.31-52.88-8.83-106.25-18.18-157.86-27.23-184.08-32.26-357.95-62.74-524.6-73.76-151.02-9.95-298.17-1.29-424.09,24.37v3.31c125.74-25.7,272.84-34.39,423.83-24.45,166.44,11.01,340.21,41.47,524.18,73.71,51.61,9.05,104.99,18.4,157.89,27.23,277.35,46.29,494.68,61.02,683.96,46.35,40.7-3.17,81.97-7.77,123.9-13.84,156.24-22.59,321.8-65.45,502.4-129.88,154.52-55.16,291.61-112.78,406.44-162.1v-3.58c-115.09,49.44-252.66,107.31-407.75,162.67Z"/><path class="cls-24" d="m2780,1042.55c-80.11,32.6-186.8,75.19-301.75,115.49-118.79,41.64-226.15,73.55-328.18,97.56-116.08,27.3-231.59,45.41-343.32,53.83-201.61,15.15-433.01-.76-728.25-50.07-56.38-9.42-113.27-19.4-168.29-29.04-196.05-34.38-381.23-66.85-558.51-78.72-122.74-8.19-242.69-4.84-351.7,9.23v3.26c108.88-14.1,228.77-17.45,351.44-9.27,177.07,11.87,362.14,44.32,558.09,78.67,55.03,9.65,111.93,19.63,168.33,29.05,295.55,49.37,527.26,65.29,729.19,50.12,47.39-3.57,95.44-8.89,143.93-15.9,66.07-9.55,132.94-22.26,200-38.03,102.17-24.05,209.65-56,328.57-97.67,115.03-40.33,221.78-82.94,301.93-115.56,13.98-5.69,27.63-11.28,41.13-16.83v-3.55c-13.97,5.74-28.1,11.53-42.6,17.43Z"/><path class="cls-23" d="m2552.83,1168.67c-129.62,44.82-246.49,79.12-357.29,104.86-125.72,29.18-250.59,48.5-371.15,57.4-217.04,15.98-465.95-1.28-783.33-54.32-60.68-10.15-121.9-20.89-181.11-31.27-210.57-36.93-409.46-71.82-599.59-84.65-92.47-6.22-179.68-6.92-260.36-2.3v3.24c80.58-4.63,167.7-3.93,260.1,2.28,189.92,12.82,388.71,47.68,599.17,84.6,59.21,10.39,120.45,21.13,181.15,31.27,317.7,53.09,566.91,70.37,784.27,54.37,52.67-3.89,106.16-9.76,160.19-17.57,69.84-10.1,140.57-23.44,211.56-39.92,110.94-25.78,227.94-60.11,357.68-104.98,97.95-33.88,190.63-69.32,268.49-100.04v-3.53c-78.11,30.84-171.28,66.48-269.77,100.55Z"/><path class="cls-25" d="m2641.95,1169.32c-143.04,48.89-271.65,86.24-393.18,114.19-137.43,31.59-273.67,52.45-404.96,62.01-235.59,17.09-505.57-1.73-849.64-59.25-65.83-11.01-132.24-22.66-196.46-33.93-228.04-40.01-443.43-77.8-648.98-91.72-51.21-3.46-100.8-5.29-148.74-5.65v3.23c47.85.36,97.35,2.19,148.47,5.64,205.33,13.9,420.63,51.68,648.56,91.67,64.23,11.27,130.64,22.92,196.49,33.93,344.39,57.57,614.66,76.41,850.58,59.29,58.58-4.26,118.14-10.77,178.35-19.48,74.94-10.84,150.9-25.08,227.2-42.61,121.66-27.98,250.39-65.37,393.56-114.3,62.29-21.29,122.76-43.18,179.39-64.36v-3.5c-56.99,21.32-117.9,43.38-180.65,64.84Z"/><path class="cls-5" d="m2749.53,1169.17c-159.53,53.79-302.51,94.82-437.1,125.41-151.61,34.44-301.54,57.13-445.64,67.45-257.71,18.39-552.71-2.31-928.39-65.14-71.97-12.04-144.54-24.78-214.73-37.1-248.7-43.65-483.62-84.88-707.33-100.08-5.5-.37-10.88-.62-16.35-.96v3.24c5.38.33,10.67.58,16.08.95,223.5,15.19,458.32,56.4,706.92,100.03,70.2,12.32,142.78,25.06,214.77,37.11,375.99,62.88,671.29,83.59,929.32,65.18,65.84-4.71,132.88-12.01,200.76-21.82,80.88-11.69,162.93-26.97,245.47-45.72,134.72-30.63,277.82-71.68,437.48-125.52,24.21-8.16,48.15-16.42,71.82-24.69v-3.47c-24.07,8.42-48.43,16.82-73.07,25.13Z"/><path class="cls-32" d="m2389.61,1319.64c-168.55,37.55-334.73,62.2-493.95,73.25-283.62,19.61-607.88-3.41-1020.44-72.45-79.15-13.26-158.96-27.27-236.14-40.82-222.71-39.11-435.32-76.43-639.08-97.95v3.25c203.51,21.52,415.92,58.8,638.4,97.87,77.18,13.56,157,27.57,236.17,40.83,412.88,69.1,737.42,92.14,1021.36,72.5,75.85-5.26,153.26-13.6,231.77-24.96,86.49-12.51,174.32-28.66,262.76-48.37,133.92-29.86,275.84-68.95,432.14-119.02v-3.43c-156.66,50.23-298.85,89.41-432.99,119.32Z"/><path class="cls-17" d="m2483.62,1375.71c-188.49,40.52-373.69,66.91-550.49,78.43-313.48,20.36-671.29-5.65-1126.04-81.86-87.38-14.65-175.45-30.13-260.63-45.1-188.58-33.14-370.59-65.11-546.47-88.98v3.27c175.65,23.85,357.43,55.79,545.79,88.89,85.18,14.97,173.26,30.45,260.66,45.1,455.06,76.26,813.16,102.29,1126.95,81.91,91.02-5.93,184.26-15.8,279.03-29.5,89.51-12.94,180.38-29.3,272.02-49.01,106.95-23,218.81-51.19,338.15-85.22v-3.39c-119.66,34.15-231.8,62.41-338.98,85.47Z"/><path class="cls-20" d="m2597.78,1483.49c-211.58,42.67-418.68,70.06-615.53,81.41-347.22,19.94-742.71-10.04-1244.63-94.35-96.6-16.23-194.45-33.57-289.08-50.33-113.78-20.16-231.43-41-345.94-59.73-35.29-5.77-69.38-11.17-102.6-16.29v3.28c33.02,5.09,66.89,10.45,101.96,16.19,114.49,18.73,232.13,39.57,345.89,59.72,94.63,16.76,192.49,34.1,289.11,50.33,502.22,84.36,898,114.36,1245.51,94.4,115.63-6.67,234.76-18.86,356.29-36.43,85.55-12.37,172.3-27.41,259.79-45.05,72.3-14.59,146.78-31.22,224.05-50.04v-3.35c-77.55,18.9-152.28,35.6-224.82,50.23Z"/><path class="cls-30" d="m2735.02,1665.69c-237.92,43.03-469.73,69.91-689,79.9-384.55,17.43-821.43-17.91-1374.85-111.22-106.47-17.96-214.31-37.08-318.6-55.57-115.93-20.55-235.47-41.73-352.56-61.21v3.29c116.86,19.45,236.17,40.58,351.87,61.1,104.3,18.49,212.16,37.62,318.64,55.57,553.71,93.36,990.85,128.72,1375.69,111.27,157.33-7.17,321.09-23.02,488.93-47.29,66.28-9.58,133.19-20.48,200.59-32.67,28.52-5.16,57.51-10.62,86.88-16.35v-3.31c-29.62,5.78-58.84,11.29-87.58,16.49Z"/></g></g></g></g></svg>