<svg width="222" height="71" viewBox="0 0 222 71" fill="none" xmlns="http://www.w3.org/2000/svg">
<path d="M8.21749 6.19485H96.2256C99.3337 6.19485 101.761 5.72113 103.932 4.77368C106.146 3.82623 108.147 2.4415 110.276 0.619479L111 0L111.724 0.619479C113.853 2.4415 115.854 3.86267 118.068 4.77368C120.239 5.68469 122.709 6.19485 125.774 6.19485H214.762V22.3744C214.762 25.0345 215.315 27.1116 216.422 28.9701C217.529 30.865 219.147 32.5777 221.276 34.3997L222 35.0192L221.276 35.6387C219.147 37.4607 217.487 39.1733 216.422 41.0682C215.358 42.9267 214.762 45.0403 214.762 47.664V63.8435H125.774C122.666 63.8435 120.239 64.3172 118.068 65.2646C115.854 66.2121 113.853 67.5968 111.724 69.4188L111 70.0384L110.276 69.4188C108.147 67.5968 106.146 66.1757 103.932 65.2646C101.761 64.3536 99.2911 63.8435 96.2256 63.8435H7.23819V47.664C7.23819 45.0039 6.68469 42.9267 5.57767 41.0682C4.47065 39.1733 2.8527 37.4607 0.723813 35.6387L0 35.0192L0.723813 34.3997C2.8527 32.5777 4.51322 30.865 5.57767 28.9701C6.64211 27.1116 7.23819 24.9981 7.23819 22.3744V6.19485H8.26008H8.21749ZM96.2256 7.94397H9.23935V22.4108C9.23935 25.326 8.60067 27.6582 7.36592 29.7718C6.2589 31.6302 4.76868 33.3065 2.81011 35.0192C4.72611 36.7319 6.2589 38.4081 7.36592 40.2666C8.60067 42.3801 9.23935 44.7123 9.23935 47.6275V62.0943H96.2256C99.6318 62.0943 102.357 62.641 104.826 63.6977C106.998 64.6087 108.956 65.9206 110.957 67.5968C112.959 65.957 114.917 64.6452 117.131 63.6977C119.601 62.641 122.326 62.0943 125.732 62.0943H212.718V47.6275C212.718 44.7123 213.357 42.3801 214.592 40.2666C215.699 38.4081 217.189 36.7319 219.147 35.0192C217.231 33.3065 215.699 31.6302 214.592 29.7718C213.357 27.6582 212.718 25.326 212.718 22.4108V7.94397H125.732C122.326 7.94397 119.601 7.39736 117.131 6.34059C114.96 5.39314 113.001 4.11775 110.957 2.4415C108.956 4.08131 106.998 5.39314 104.826 6.34059C102.357 7.39736 99.6318 7.94397 96.2256 7.94397Z" fill="#454FDA"/>
</svg>
