<svg width="15" height="15" viewBox="0 0 15 15" fill="none" xmlns="http://www.w3.org/2000/svg">
<g clip-path="url(#clip0_130_365)">
<path d="M10.6498 14.5011H3.48438C3.21605 14.5011 2.95872 14.3945 2.76898 14.2048C2.57925 14.0151 2.47266 13.7577 2.47266 13.4894V3.98145C2.47266 3.71312 2.57925 3.45579 2.76898 3.26605C2.95872 3.07632 3.21605 2.96973 3.48438 2.96973H10.6512C10.9195 2.96973 11.1768 3.07632 11.3666 3.26605C11.5563 3.45579 11.6629 3.71312 11.6629 3.98145V13.4894C11.6629 13.6224 11.6367 13.7541 11.5857 13.8769C11.5348 13.9997 11.4602 14.1113 11.3661 14.2053C11.272 14.2993 11.1603 14.3737 11.0374 14.4245C10.9145 14.4753 10.7828 14.5013 10.6498 14.5011ZM3.83848 13.1339H10.2943V4.33691H3.83984L3.83848 13.1339Z" fill="#F9FAFB"/>
<path d="M13.4648 12.75C13.2835 12.75 13.1097 12.678 12.9815 12.5498C12.8533 12.4216 12.7812 12.2477 12.7812 12.0664V1.86719H5.97266C5.79136 1.86719 5.61748 1.79517 5.48928 1.66697C5.36108 1.53877 5.28906 1.36489 5.28906 1.18359C5.28906 1.00229 5.36108 0.828419 5.48928 0.70022C5.61748 0.572021 5.79136 0.5 5.97266 0.5L13.1367 0.5C13.405 0.5 13.6624 0.606592 13.8521 0.796326C14.0418 0.98606 14.1484 1.24339 14.1484 1.51172V12.0664C14.1484 12.2477 14.0764 12.4216 13.9482 12.5498C13.82 12.678 13.6461 12.75 13.4648 12.75Z" fill="#F9FAFB"/>
</g>
<defs>
<clipPath id="clip0_130_365">
<rect width="14" height="14" fill="white" transform="translate(0.148438 0.5)"/>
</clipPath>
</defs>
</svg>
