<svg width="170" height="42" viewBox="0 0 170 42" fill="none" xmlns="http://www.w3.org/2000/svg">
<path fill-rule="evenodd" clip-rule="evenodd" d="M24.0552 0L28.008 2.42017C27.8516 11.1256 29.422 11.2757 21.5544 16.0132L17.8435 13.6334C26.0442 8.86098 23.8275 9.8545 24.0552 0Z" fill="white"/>
<path fill-rule="evenodd" clip-rule="evenodd" d="M30.5643 4.1123L34.517 6.53247C34.3606 15.2379 35.9311 15.388 28.0634 20.1255L24.3525 17.7457C32.5533 12.9733 30.3365 13.9668 30.5643 4.1123Z" fill="white"/>
<path fill-rule="evenodd" clip-rule="evenodd" d="M10.9446 0L6.9918 2.42017C7.14821 11.1256 5.57776 11.2757 13.4454 16.0132L17.1563 13.6334C8.95556 8.86098 11.1723 9.8545 10.9446 0Z" fill="white"/>
<path fill-rule="evenodd" clip-rule="evenodd" d="M4.43553 4.1123L0.482765 6.53247C0.639179 15.2379 -0.931264 15.388 6.93641 20.1255L10.6473 17.7457C2.44653 12.9733 4.6633 13.9668 4.43553 4.1123Z" fill="white"/>
<path fill-rule="evenodd" clip-rule="evenodd" d="M24.0552 42L28.008 39.5798C27.8516 30.8744 29.422 30.7243 21.5544 25.9868L17.8435 28.3665C26.0442 33.139 23.8275 32.1455 24.0552 42Z" fill="white"/>
<path fill-rule="evenodd" clip-rule="evenodd" d="M30.5643 37.8877L34.517 35.4675C34.3606 26.7621 35.9311 26.612 28.0634 21.8745L24.3525 24.2542C32.5533 29.0267 30.3365 28.0332 30.5643 37.8877Z" fill="white"/>
<path fill-rule="evenodd" clip-rule="evenodd" d="M10.9446 42L6.9918 39.5798C7.14821 30.8744 5.57776 30.7243 13.4454 25.9868L17.1563 28.3665C8.95556 33.139 11.1723 32.1455 10.9446 42Z" fill="white"/>
<path fill-rule="evenodd" clip-rule="evenodd" d="M4.43553 37.8877L0.482765 35.4675C0.639179 26.7621 -0.931264 26.612 6.93641 21.8745L10.6473 24.2542C2.44653 29.0267 4.6633 28.0332 4.43553 37.8877Z" fill="white"/>
<path d="M58.5651 29.408C62.5251 29.408 65.5971 27.416 65.5971 23.816C65.5971 20.144 62.7171 19.16 59.5251 18.416C56.9571 17.84 55.6371 17.552 55.6371 16.352C55.6371 15.392 56.6211 14.744 58.1091 14.744C59.6931 14.744 60.7011 15.488 60.8691 16.808H65.0211C64.8531 13.208 61.9731 11.528 58.2531 11.528C54.4131 11.528 51.4371 13.136 51.4371 16.808C51.4371 20.408 54.5811 21.32 57.5571 22.016C59.9091 22.592 61.3011 22.88 61.3011 24.248C61.3011 25.544 59.9331 26.048 58.5411 26.048C56.5011 26.048 55.3731 25.328 55.1811 23.6H50.9091C51.0051 27.392 54.0051 29.408 58.5651 29.408ZM73.2116 26.6C71.5076 26.6 70.6196 25.112 70.6196 22.88C70.6196 20.648 71.5076 19.136 73.2116 19.136C74.9156 19.136 75.8276 20.648 75.8276 22.88C75.8276 25.112 74.9156 26.6 73.2116 26.6ZM73.2356 29.384C77.1956 29.384 79.7876 26.576 79.7876 22.88C79.7876 19.184 77.1956 16.376 73.2356 16.376C69.2996 16.376 66.6596 19.184 66.6596 22.88C66.6596 26.576 69.2996 29.384 73.2356 29.384ZM81.1341 29H85.0941V11.84H81.1341V29ZM86.9929 29H90.9049V16.712H86.9929V29ZM86.9929 15.008H90.9049V11.84H86.9929V15.008ZM93.0219 29H96.8379V20.384C96.8379 19.688 96.7659 16.928 96.7659 16.928H96.8139C96.8139 16.928 97.4139 19.52 97.6059 20.144L100.054 29H103.558L106.03 20.12C106.222 19.496 106.822 16.928 106.822 16.928H106.87C106.87 16.928 106.798 19.664 106.798 20.36V29H110.686V11.84H104.926L102.814 19.352C102.526 20.432 101.854 23.264 101.854 23.264H101.806C101.806 23.264 101.134 20.432 100.822 19.352L98.7339 11.84H93.0219V29ZM116.422 29.312C118.27 29.312 119.35 28.664 120.07 27.632H120.118C120.214 28.256 120.334 28.736 120.526 29H124.318V28.832C123.982 28.616 123.886 28.064 123.886 27.08V20.888C123.886 19.352 123.382 18.152 122.326 17.384C121.438 16.712 120.19 16.376 118.342 16.376C114.622 16.376 112.87 18.32 112.774 20.6H116.374C116.494 19.568 117.118 19.016 118.366 19.016C119.542 19.016 120.046 19.544 120.046 20.336C120.046 21.176 119.23 21.416 116.926 21.704C114.382 22.04 112.222 22.856 112.222 25.568C112.222 27.992 113.974 29.312 116.422 29.312ZM117.67 26.816C116.71 26.816 115.99 26.432 115.99 25.448C115.99 24.512 116.614 24.128 118.126 23.792C118.918 23.6 119.638 23.408 120.142 23.144V24.608C120.142 25.928 119.134 26.816 117.67 26.816ZM125.014 29H129.286L131.518 25.328H131.566L133.582 29H138.118L133.942 22.496L137.59 16.712H133.486L131.758 19.88H131.71L129.886 16.712H125.422L129.286 22.544L125.014 29Z" fill="white"/>
</svg>
