<svg width="170" height="42" viewBox="0 0 170 42" fill="none" xmlns="http://www.w3.org/2000/svg">
<path d="M22.0078 15.8365L18.5819 13.6396C20.5151 12.5132 21.8594 11.7078 22.7843 10.9944C23.747 10.2518 24.271 9.59738 24.5332 8.76769C24.792 7.94897 24.7901 6.97388 24.7426 5.61124C24.7354 5.40264 24.727 5.18451 24.7182 4.95589C24.6714 3.73741 24.6131 2.22117 24.6506 0.264323L28.3075 2.50331C28.284 3.90162 28.3047 5.08218 28.3224 6.09179C28.3317 6.62319 28.3402 7.10723 28.3409 7.55074C28.3432 8.86175 28.2783 9.8219 27.9825 10.6544C27.6887 11.4814 27.1619 12.1956 26.2138 13.0005C25.2754 13.7971 23.932 14.676 22.0078 15.8365Z" fill="#A747ED" stroke="#A747ED" stroke-width="0.3" stroke-miterlimit="2.61313"/>
<path d="M28.5168 19.9488L25.091 17.7519C27.0241 16.6254 28.3684 15.82 29.2933 15.1066C30.256 14.3641 30.78 13.7096 31.0422 12.8799C31.301 12.0612 31.2992 11.0861 31.2517 9.72348C31.2444 9.51488 31.236 9.29675 31.2272 9.06813C31.1804 7.84965 31.1221 6.33341 31.1596 4.37657L34.8165 6.61556C34.793 8.01385 34.8137 9.19441 34.8314 10.204C34.8407 10.7354 34.8492 11.2195 34.85 11.663C34.8523 12.974 34.7873 13.9341 34.4915 14.7667C34.1977 15.5936 33.6709 16.3079 32.7228 17.1127C31.7844 17.9093 30.4411 18.7882 28.5168 19.9488Z" fill="#A747ED" stroke="#A747ED" stroke-width="0.3" stroke-miterlimit="2.61313"/>
<path d="M7.57928 6.09179C7.59697 5.08218 7.61766 3.90162 7.59419 2.50331L11.251 0.264323C11.2885 2.22116 11.2303 3.7374 11.1835 4.95588C11.1747 5.1845 11.1663 5.40264 11.159 5.61124C11.1115 6.97388 11.1097 7.94897 11.3685 8.76769C11.6307 9.59738 12.1547 10.2518 13.1174 10.9944C14.0423 11.7078 15.3866 12.5132 17.3197 13.6396L13.8939 15.8365C11.9696 14.676 10.6263 13.7971 9.68788 13.0005C8.73975 12.1956 8.21298 11.4814 7.91917 10.6544C7.62335 9.8219 7.5584 8.86175 7.5607 7.55074C7.56148 7.10723 7.56996 6.62319 7.57928 6.09179Z" fill="#A747ED" stroke="#A747ED" stroke-width="0.3" stroke-miterlimit="2.61313"/>
<path d="M1.07024 10.204C1.08793 9.19441 1.10862 8.01386 1.08516 6.61556L4.74201 4.37657C4.77951 6.33341 4.72125 7.84965 4.67443 9.06813C4.66565 9.29675 4.65727 9.51488 4.65 9.72348C4.6025 11.0861 4.60067 12.0612 4.85944 12.8799C5.12167 13.7096 5.64563 14.3641 6.60834 15.1066C7.53324 15.82 8.87754 16.6254 10.8107 17.7519L7.38487 19.9488C5.46058 18.7882 4.11725 17.9093 3.17885 17.1127C2.23072 16.3079 1.70396 15.5936 1.41014 14.7667C1.11432 13.9341 1.04937 12.974 1.05167 11.663C1.05245 11.2195 1.06093 10.7354 1.07024 10.204Z" fill="#A747ED" stroke="#A747ED" stroke-width="0.3" stroke-miterlimit="2.61313"/>
<path d="M28.3075 39.4967L24.6506 41.7357C24.6131 39.7788 24.6714 38.2626 24.7182 37.0441C24.727 36.8155 24.7354 36.5974 24.7426 36.3888C24.7901 35.0261 24.792 34.0511 24.5332 33.2323C24.271 32.4026 23.747 31.7482 22.7843 31.0056C21.8594 30.2922 20.5151 29.4868 18.5819 28.3604L22.0078 26.1635C23.932 27.324 25.2754 28.2029 26.2138 28.9995C27.1619 29.8044 27.6887 30.5187 27.9825 31.3456C28.2783 32.1781 28.3432 33.1383 28.3409 34.4493C28.3402 34.8928 28.3317 35.3768 28.3224 35.9082C28.3047 36.9178 28.284 38.0984 28.3075 39.4967Z" fill="#A747ED" stroke="#A747ED" stroke-width="0.3" stroke-miterlimit="2.61313"/>
<path d="M34.8165 35.3843L31.1596 37.6233C31.1221 35.6664 31.1804 34.1502 31.2272 32.9317C31.236 32.7031 31.2444 32.4849 31.2517 32.2763C31.2992 30.9137 31.301 29.9386 31.0422 29.1199C30.78 28.2902 30.256 27.6357 29.2933 26.8932C28.3684 26.1798 27.0241 25.3744 25.091 24.248L28.5168 22.051C30.4411 23.2116 31.7844 24.0905 32.7228 24.8871C33.6709 25.6919 34.1977 26.4062 34.4915 27.2331C34.7873 28.0657 34.8523 29.0258 34.85 30.3368C34.8492 30.7803 34.8407 31.2644 34.8314 31.7958C34.8137 32.8054 34.793 33.986 34.8165 35.3843Z" fill="#A747ED" stroke="#A747ED" stroke-width="0.3" stroke-miterlimit="2.61313"/>
<path d="M17.3197 28.3604C15.3866 29.4868 14.0423 30.2922 13.1174 31.0056C12.1547 31.7482 11.6307 32.4026 11.3685 33.2323C11.1097 34.0511 11.1115 35.0261 11.159 36.3888C11.1663 36.5974 11.1747 36.8155 11.1835 37.0441C11.2303 38.2626 11.2885 39.7789 11.251 41.7357L7.59419 39.4967C7.61766 38.0984 7.59697 36.9178 7.57928 35.9082C7.56996 35.3768 7.56148 34.8928 7.5607 34.4493C7.5584 33.1383 7.62335 32.1781 7.91917 31.3456C8.21298 30.5187 8.73975 29.8044 9.68788 28.9995C10.6263 28.2029 11.9696 27.324 13.8939 26.1635L17.3197 28.3604Z" fill="#A747ED" stroke="#A747ED" stroke-width="0.3" stroke-miterlimit="2.61313"/>
<path d="M10.8107 24.248C8.87754 25.3744 7.53324 26.1798 6.60834 26.8932C5.64563 27.6357 5.12167 28.2902 4.85944 29.1199C4.60067 29.9386 4.6025 30.9137 4.65 32.2763C4.65727 32.4849 4.66565 32.7031 4.67443 32.9317C4.72125 34.1502 4.77951 35.6664 4.74201 37.6233L1.08516 35.3843C1.10862 33.986 1.08793 32.8054 1.07024 31.7958C1.06093 31.2644 1.05245 30.7803 1.05167 30.3368C1.04937 29.0258 1.11432 28.0657 1.41014 27.2331C1.70396 26.4062 2.23072 25.6919 3.17885 24.8871C4.11725 24.0905 5.46058 23.2116 7.38487 22.051L10.8107 24.248Z" fill="#A747ED" stroke="#A747ED" stroke-width="0.3" stroke-miterlimit="2.61313"/>
<path d="M61.688 32.544C66.968 32.544 71.064 29.888 71.064 25.088C71.064 20.192 67.224 18.88 62.968 17.888C59.544 17.12 57.784 16.736 57.784 15.136C57.784 13.856 59.096 12.992 61.08 12.992C63.192 12.992 64.536 13.984 64.76 15.744H70.296C70.072 10.944 66.232 8.704 61.272 8.704C56.152 8.704 52.184 10.848 52.184 15.744C52.184 20.544 56.376 21.76 60.344 22.688C63.48 23.456 65.336 23.84 65.336 25.664C65.336 27.392 63.512 28.064 61.656 28.064C58.936 28.064 57.432 27.104 57.176 24.8H51.48C51.608 29.856 55.608 32.544 61.688 32.544ZM81.2168 28.8C78.9448 28.8 77.7608 26.816 77.7608 23.84C77.7608 20.864 78.9448 18.848 81.2168 18.848C83.4888 18.848 84.7048 20.864 84.7048 23.84C84.7048 26.816 83.4888 28.8 81.2168 28.8ZM81.2488 32.512C86.5288 32.512 89.9848 28.768 89.9848 23.84C89.9848 18.912 86.5288 15.168 81.2488 15.168C76.0008 15.168 72.4808 18.912 72.4808 23.84C72.4808 28.768 76.0008 32.512 81.2488 32.512ZM91.78 32H97.06V9.12H91.78V32ZM99.5918 32H104.808V15.616H99.5918V32ZM99.5918 13.344H104.808V9.12H99.5918V13.344ZM107.631 32H112.719V20.512C112.719 19.584 112.623 15.904 112.623 15.904H112.687C112.687 15.904 113.487 19.36 113.743 20.192L117.007 32H121.679L124.975 20.16C125.231 19.328 126.031 15.904 126.031 15.904H126.095C126.095 15.904 125.999 19.552 125.999 20.48V32H131.183V9.12H123.503L120.687 19.136C120.303 20.576 119.407 24.352 119.407 24.352H119.343C119.343 24.352 118.447 20.576 118.031 19.136L115.247 9.12H107.631V32ZM138.83 32.416C141.294 32.416 142.734 31.552 143.694 30.176H143.758C143.886 31.008 144.046 31.648 144.302 32H149.358V31.776C148.91 31.488 148.782 30.752 148.782 29.44V21.184C148.782 19.136 148.11 17.536 146.702 16.512C145.518 15.616 143.854 15.168 141.39 15.168C136.43 15.168 134.094 17.76 133.966 20.8H138.766C138.926 19.424 139.758 18.688 141.422 18.688C142.99 18.688 143.662 19.392 143.662 20.448C143.662 21.568 142.574 21.888 139.502 22.272C136.11 22.72 133.23 23.808 133.23 27.424C133.23 30.656 135.566 32.416 138.83 32.416ZM140.494 29.088C139.214 29.088 138.254 28.576 138.254 27.264C138.254 26.016 139.086 25.504 141.102 25.056C142.158 24.8 143.118 24.544 143.79 24.192V26.144C143.79 27.904 142.446 29.088 140.494 29.088ZM150.287 32H155.983L158.959 27.104H159.023L161.711 32H167.759L162.191 23.328L167.055 15.616H161.583L159.279 19.84H159.215L156.783 15.616H150.831L155.983 23.392L150.287 32Z" fill="white"/>
</svg>
