<svg width="341" height="24" viewBox="0 0 341 24" fill="none" xmlns="http://www.w3.org/2000/svg">
<rect x="0.5" y="0.5" width="340" height="23" rx="7.5" stroke="#6B7280"/>
<path d="M4 7C4 4.79086 5.79086 3 8 3H14.8846V21H8C5.79086 21 4 19.2091 4 17V7Z" fill="#2166AE"/>
<path d="M16.8848 3H27.7694V21H16.8848V3Z" fill="#2166AE"/>
<path d="M29.7695 3H40.6541V21H29.7695V3Z" fill="#2166AE"/>
<path d="M42.6543 3H53.5389V21H42.6543V3Z" fill="#2166AE"/>
<path d="M55.5381 3H66.4227V21H55.5381V3Z" fill="#2166AE"/>
<path d="M68.4229 3H79.3075V21H68.4229V3Z" fill="#2166AE"/>
<path d="M81.3076 3H92.1922V21H81.3076V3Z" fill="#2166AE"/>
<path d="M94.1924 3H105.077V21H94.1924V3Z" fill="#2166AE"/>
<path d="M107.077 3H117.962V21H107.077V3Z" fill="#2166AE"/>
<path d="M119.962 3H130.847V21H119.962V3Z" fill="#2166AE"/>
<path d="M132.846 3H143.73V21H132.846V3Z" fill="#2166AE"/>
<path d="M145.73 3H156.615V21H145.73V3Z" fill="#2166AE"/>
<path d="M158.615 3H169.5V21H158.615V3Z" fill="#2166AE"/>
<path d="M171.5 3H182.385V21H171.5V3Z" fill="#2166AE"/>
<path d="M184.385 3H195.269V21H184.385V3Z" fill="#2166AE"/>
<path d="M197.27 3H208.154V21H197.27V3Z" fill="#2166AE"/>
<path d="M210.154 3H221.039V21H210.154V3Z" fill="#2166AE"/>
<path d="M223.038 3H233.923V21H223.038V3Z" fill="#2166AE"/>
<path d="M235.923 3H246.807V21H235.923V3Z" fill="#2166AE"/>
<path d="M248.808 3H259.692V21H248.808V3Z" fill="#2166AE"/>
<path d="M261.692 3H272.577V21H261.692V3Z" fill="#2166AE"/>
<path d="M274.577 3H285.462V21H274.577V3Z" fill="#2166AE"/>
<path d="M287.462 3H298.347V21H287.462V3Z" fill="#2166AE"/>
<path d="M300.346 3H311.23V21H300.346V3Z" fill="#2166AE"/>
<path d="M313.23 3H324.115V21H313.23V3Z" fill="#2166AE"/>
<path d="M337 7C337 4.79086 335.209 3 333 3H326.115V21H333C335.209 21 337 19.2091 337 17V7Z" fill="#2166AE"/>
</svg>
