<svg width="26" height="26" viewBox="0 0 26 26" fill="none" xmlns="http://www.w3.org/2000/svg">
<path d="M4.3335 13C4.33865 10.4837 5.21962 8.04759 6.82517 6.11C7.00905 5.88877 7.09752 5.60355 7.07111 5.31708C7.04469 5.03062 6.90557 4.76638 6.68433 4.5825C6.4631 4.39862 6.17788 4.31015 5.89141 4.33656C5.60495 4.36297 5.34072 4.5021 5.15683 4.72333C3.23361 7.05276 2.18164 9.97924 2.18164 13C2.18164 16.0208 3.23361 18.9472 5.15683 21.2767C5.25869 21.399 5.38624 21.4973 5.53042 21.5647C5.67459 21.6321 5.83185 21.6669 5.991 21.6667C6.24412 21.6672 6.48943 21.579 6.68433 21.4175C6.79403 21.3266 6.88471 21.2149 6.95117 21.0888C7.01764 20.9628 7.05858 20.8249 7.07166 20.683C7.08475 20.5411 7.06971 20.398 7.02741 20.2619C6.98511 20.1259 6.91639 19.9995 6.82517 19.89C5.21962 17.9524 4.33865 15.5163 4.3335 13Z" fill="white"/>
<path d="M13.0007 15.1667C14.1973 15.1667 15.1673 14.1966 15.1673 13C15.1673 11.8034 14.1973 10.8333 13.0007 10.8333C11.804 10.8333 10.834 11.8034 10.834 13C10.834 14.1966 11.804 15.1667 13.0007 15.1667Z" fill="white"/>
<path d="M18.4817 9.18667C18.4192 9.04854 18.3285 8.92504 18.2154 8.82417C18.1022 8.7233 17.9692 8.6473 17.8248 8.60108C17.6804 8.55486 17.528 8.53945 17.3773 8.55585C17.2266 8.57225 17.081 8.62009 16.95 8.69628C16.8189 8.77247 16.7053 8.87531 16.6165 8.99815C16.5277 9.121 16.4657 9.26111 16.4344 9.40944C16.4032 9.55777 16.4034 9.711 16.4351 9.85924C16.4667 10.0075 16.5292 10.1474 16.6183 10.27C17.0937 11.0934 17.344 12.0275 17.344 12.9783C17.344 13.9292 17.0937 14.8632 16.6183 15.6867C16.5436 15.8088 16.4939 15.9446 16.472 16.0861C16.4501 16.2275 16.4564 16.372 16.4907 16.511C16.5249 16.65 16.5864 16.7809 16.6715 16.896C16.7567 17.0111 16.8638 17.1082 16.9867 17.1817C17.159 17.2781 17.3526 17.3302 17.55 17.3333C17.737 17.3344 17.921 17.2871 18.0843 17.196C18.2475 17.1049 18.3844 16.973 18.4817 16.8133C19.1409 15.6584 19.4877 14.3515 19.4877 13.0217C19.4877 11.6918 19.1409 10.3849 18.4817 9.23V9.18667Z" fill="white"/>
<path d="M9.01372 8.81833C8.89157 8.74364 8.75583 8.6939 8.61434 8.67199C8.47285 8.65008 8.32842 8.65643 8.1894 8.69068C8.05038 8.72493 7.91952 8.7864 7.80441 8.87153C7.68929 8.95667 7.59219 9.06377 7.51872 9.18666C6.85944 10.3416 6.5127 11.6485 6.5127 12.9783C6.5127 14.3082 6.85944 15.6151 7.51872 16.77C7.61048 16.9378 7.74501 17.0783 7.90865 17.1772C8.07228 17.2761 8.25919 17.33 8.45039 17.3333C8.64783 17.3302 8.84141 17.2781 9.01372 17.1817C9.13661 17.1082 9.24372 17.0111 9.32885 16.896C9.41398 16.7809 9.47545 16.65 9.5097 16.511C9.54395 16.372 9.55031 16.2275 9.5284 16.086C9.50649 15.9446 9.45675 15.8088 9.38205 15.6867C8.90664 14.8632 8.65636 13.9292 8.65636 12.9783C8.65636 12.0275 8.90664 11.0934 9.38205 10.27C9.51939 10.0272 9.55775 9.74069 9.48914 9.47026C9.42052 9.19984 9.25023 8.96632 9.01372 8.81833Z" fill="white"/>
<path d="M20.854 4.72333C20.7629 4.61379 20.6512 4.52325 20.5252 4.45689C20.3991 4.39053 20.2612 4.34964 20.1194 4.33656C19.8329 4.31015 19.5477 4.39862 19.3265 4.5825C19.1052 4.76638 18.9661 5.03062 18.9397 5.31708C18.9133 5.60355 19.0018 5.88877 19.1856 6.11C20.7846 8.0501 21.659 10.4859 21.659 13C21.659 15.5141 20.7846 17.9499 19.1856 19.89C19.0944 19.9995 19.0257 20.1259 18.9834 20.2619C18.9411 20.398 18.9261 20.5411 18.9391 20.683C18.9522 20.8249 18.9932 20.9628 19.0596 21.0888C19.1261 21.2149 19.2168 21.3266 19.3265 21.4175C19.5214 21.579 19.7667 21.6672 20.0198 21.6667C20.179 21.6669 20.3362 21.6321 20.4804 21.5647C20.6246 21.4973 20.7521 21.399 20.854 21.2767C22.7772 18.9472 23.8292 16.0208 23.8292 13C23.8292 9.97924 22.7772 7.05276 20.854 4.72333Z" fill="white"/>
</svg>
