<svg width="421" height="457" viewBox="0 0 421 457" fill="none" xmlns="http://www.w3.org/2000/svg">
<path d="M159.672 41.528L209.678 2.10028L262.088 41.528" stroke="#00FFFF" stroke-width="1.9233"/>
<path d="M173.135 39.6047L209.725 6.90857L248.144 39.6047" stroke="#00FFFF" stroke-width="0.480826"/>
<path d="M1 39.6047V213.235L31.589 247.538L1 278.148V456H420.28V272.343L393.91 245.955L420.28 211.124V39.6047H1Z" fill="#090E17" stroke="#1592CA" stroke-width="0.673156"/>
<path d="M19.2715 57.8761V216.068L47.1594 247.322L19.2715 275.209V437.248H401.528V269.92L377.487 245.879L401.528 214.145V57.8761H19.2715Z" stroke="#00FFFF" stroke-width="1.9233"/>
<path d="M50.5502 90.5723H46.1982V96.9119H50.5502V90.5723Z" fill="#00E4FF"/>
<path d="M58.4644 91.7635V95.7408H55.7341V91.7635H58.4644ZM59.2822 90.5723H54.9302V96.9119H59.2822V90.5723Z" fill="#00E4FF"/>
<path d="M67.2095 91.7635V95.7408H64.4792V91.7635H67.2095ZM68.0273 90.5723H63.6753V96.9119H68.0273V90.5723Z" fill="#00E4FF"/>
<path d="M75.9415 91.7635V95.7408H73.2111V91.7635H75.9415ZM76.7592 90.5723H72.4072V96.9119H76.7592V90.5723Z" fill="#00E4FF"/>
<path d="M85.5048 90.5723H81.1528V96.9119H85.5048V90.5723Z" fill="#00E4FF"/>
</svg>
